<?xml version="1.0" encoding="UTF-8"?>
<svg id="Layer_2" data-name="Layer 2" xmlns="http://www.w3.org/2000/svg" viewBox="0 0 402.52 87.23">
  <defs>
    <style>
      .cls-1 {
        fill: #325396;
      }

      .cls-2 {
        fill: #ef802b;
      }

      .cls-3 {
        fill: #285992;
      }

      .cls-4 {
        fill: #f18028;
      }
    </style>
  </defs>
  <g id="Layer_1-2" data-name="Layer 1">
    <g>
      <g>
        <g>
          <polygon class="cls-2" points="122.23 24.28 115.41 24.28 109.31 31.01 109.31 24.28 103.15 24.28 103.15 42.86 109.31 42.86 109.31 38.26 110.7 36.71 115.35 42.86 122.6 42.86 114.79 32.47 122.23 24.28"/>
          <path class="cls-2" d="m133.7,28.93c-1.21-.57-2.53-.85-3.97-.85-1.56,0-2.96.32-4.21.96s-2.23,1.52-2.95,2.65c-.72,1.13-1.07,2.43-1.07,3.9s.36,2.72,1.09,3.86c.73,1.14,1.75,2.04,3.06,2.69,1.32.65,2.86.98,4.63.98,1.45,0,2.69-.2,3.73-.6,1.03-.4,1.91-.98,2.61-1.74l-3.13-3.16c-.48.35-.93.62-1.37.8-.43.18-.99.27-1.66.27s-1.21-.11-1.67-.33c-.46-.22-.81-.55-1.06-1-.07-.12-.12-.24-.17-.37h10.07c.02-.21.04-.45.05-.7.02-.26.03-.49.03-.7,0-1.64-.37-3.02-1.1-4.14-.73-1.11-1.71-1.95-2.92-2.52Zm-5.2,3.57c.36-.22.79-.33,1.29-.33s.92.11,1.27.33.63.53.84.93c.1.2.18.43.23.68h-4.68c.05-.25.12-.47.22-.68.19-.4.47-.71.84-.93Z"/>
          <path class="cls-2" d="m152.26,28.75c-.9-.45-1.91-.68-3.02-.68-1.19,0-2.26.27-3.22.82-.43.24-.81.55-1.15.9v-1.45h-5.7v14.51h6v-6.82c0-.73.1-1.3.31-1.72.2-.42.48-.73.82-.92s.72-.28,1.13-.28c.55,0,.98.19,1.3.57.32.38.48,1.02.48,1.92v7.24h6v-8.28c0-1.52-.26-2.76-.78-3.71-.52-.96-1.23-1.66-2.14-2.11Z"/>
          <path class="cls-2" d="m167.54,28.34l-3.05,7.78-3-7.78h-6.16l6.11,14.68c-.08.1-.17.2-.27.27-.28.22-.69.33-1.22.33-.35,0-.72-.07-1.1-.21-.38-.14-.72-.33-1.02-.56l-1.99,4.11c.49.39,1.15.7,1.98.94.82.24,1.63.36,2.43.36,1.03,0,1.97-.15,2.83-.45.86-.3,1.64-.82,2.33-1.57.7-.74,1.31-1.78,1.84-3.1l5.97-14.8h-5.68Z"/>
          <path class="cls-2" d="m185.46,29.75c-1.37-1.11-3.3-1.67-5.8-1.67-1.13,0-2.29.14-3.48.42s-2.2.69-3.05,1.22l1.91,3.95c.48-.35,1.05-.63,1.72-.84.67-.2,1.34-.31,1.99-.31.97,0,1.68.19,2.11.56.33.28.53.66.61,1.14h-2.4c-1.5,0-2.75.17-3.73.5-.98.34-1.71.83-2.19,1.49-.48.65-.72,1.45-.72,2.39,0,.83.2,1.59.61,2.27s1.01,1.22,1.8,1.63c.8.41,1.79.61,2.97.61,1.26,0,2.26-.27,3-.8.48-.35.85-.82,1.11-1.4v1.93h5.57v-7.8c0-2.42-.69-4.19-2.06-5.31Zm-4.7,9.43c-.34.22-.72.33-1.13.33-.44,0-.79-.11-1.05-.33-.26-.22-.38-.5-.38-.84,0-.41.15-.71.44-.92.29-.2.76-.3,1.39-.3h1.49v1.01c-.16.48-.41.83-.76,1.05Z"/>
          <path class="cls-2" d="m211.34,36.04c-.55.69-1.15,1.23-1.82,1.61s-1.41.57-2.24.57c-.65,0-1.25-.11-1.78-.32-.53-.21-.99-.52-1.37-.93-.38-.41-.68-.9-.89-1.47-.21-.57-.32-1.22-.32-1.92s.11-1.35.32-1.92c.21-.57.51-1.07.89-1.47.38-.41.84-.72,1.37-.93.53-.21,1.12-.32,1.78-.32.83,0,1.58.19,2.24.57.66.38,1.27.92,1.82,1.61l3.95-3.53c-.92-1.2-2.08-2.12-3.49-2.76-1.41-.64-3.02-.96-4.84-.96-1.49,0-2.86.23-4.13.7-1.26.47-2.36,1.14-3.29,2s-1.65,1.89-2.16,3.08c-.51,1.19-.77,2.49-.77,3.93s.26,2.74.77,3.93,1.23,2.21,2.16,3.08c.93.87,2.03,1.53,3.29,2,1.26.47,2.64.7,4.13.7,1.82,0,3.44-.32,4.84-.97,1.41-.65,2.57-1.56,3.49-2.75l-3.95-3.53Z"/>
          <path class="cls-2" d="m223.89,36.12l-3-7.78h-6.16l6.11,14.68c-.08.1-.17.2-.27.27-.28.22-.69.33-1.22.33-.35,0-.72-.07-1.1-.21-.38-.14-.72-.33-1.02-.56l-1.99,4.11c.49.39,1.15.7,1.98.94.82.24,1.63.36,2.43.36,1.03,0,1.97-.15,2.83-.45.86-.3,1.64-.82,2.33-1.57.7-.74,1.31-1.78,1.84-3.1l5.97-14.8h-5.68l-3.05,7.78Z"/>
          <path class="cls-2" d="m246.28,28.98c-1.06-.6-2.23-.9-3.5-.9s-2.3.27-3.12.81c-.2.13-.39.28-.57.45v-6.17h-6v19.69h5.7v-1.22c.23.26.48.5.77.69.81.53,1.88.8,3.21.8s2.44-.3,3.5-.91c1.06-.61,1.91-1.48,2.55-2.6s.96-2.46.96-4.02-.32-2.9-.96-4.02-1.49-1.99-2.55-2.59Zm-2.89,8.18c-.21.43-.5.76-.85.97-.35.21-.75.32-1.19.32s-.84-.11-1.19-.32c-.35-.21-.64-.53-.85-.97-.21-.43-.32-.96-.32-1.58s.11-1.16.32-1.58c.21-.42.49-.73.85-.94.35-.21.75-.32,1.19-.32s.84.11,1.19.32c.35.21.64.53.85.94.21.42.32.94.32,1.58s-.11,1.14-.32,1.58Z"/>
          <path class="cls-2" d="m262.64,28.93c-1.21-.57-2.53-.85-3.97-.85-1.56,0-2.96.32-4.21.96s-2.23,1.52-2.95,2.65c-.72,1.13-1.07,2.43-1.07,3.9s.36,2.72,1.09,3.86c.73,1.14,1.75,2.04,3.06,2.69,1.32.65,2.86.98,4.63.98,1.45,0,2.69-.2,3.73-.6,1.03-.4,1.91-.98,2.61-1.74l-3.13-3.16c-.48.35-.93.62-1.37.8-.43.18-.99.27-1.66.27s-1.21-.11-1.67-.33c-.46-.22-.81-.55-1.06-1-.07-.12-.12-.24-.17-.37h10.07c.02-.21.04-.45.05-.7.02-.26.03-.49.03-.7,0-1.64-.37-3.02-1.1-4.14-.73-1.11-1.71-1.95-2.92-2.52Zm-5.2,3.57c.36-.22.79-.33,1.29-.33s.92.11,1.27.33.63.53.84.93c.1.2.18.43.23.68h-4.68c.05-.25.12-.47.22-.68.19-.4.47-.71.84-.93Z"/>
          <path class="cls-2" d="m273.8,29.92v-1.58h-5.7v14.51h6v-6.45c0-1.15.29-1.96.86-2.43.57-.47,1.31-.7,2.22-.7.21,0,.42,0,.62.03.2.02.44.04.7.08v-5.31c-1.36,0-2.53.28-3.5.85-.46.27-.85.6-1.19.99Z"/>
          <path class="cls-2" d="m300.98,32.99c-.61-.41-1.28-.73-2-.98s-1.45-.44-2.19-.58c-.73-.14-1.41-.27-2.02-.4s-1.1-.28-1.47-.46c-.37-.19-.56-.44-.56-.76,0-.21.07-.41.23-.58.15-.18.4-.32.76-.42.35-.11.83-.16,1.43-.16.81,0,1.65.12,2.51.34.86.23,1.75.57,2.67,1.03l1.88-4.54c-.97-.55-2.07-.96-3.29-1.22-1.22-.27-2.46-.4-3.71-.4-1.91,0-3.51.28-4.79.85-1.28.57-2.25,1.32-2.89,2.27-.65.95-.97,1.99-.97,3.14,0,.99.19,1.82.56,2.48.37.66.86,1.2,1.47,1.61s1.28.73,2.02.98c.73.25,1.46.45,2.19.6.72.15,1.39.29,2,.42.61.13,1.1.3,1.47.49.37.19.56.46.56.8,0,.21-.08.39-.24.54-.16.15-.41.27-.76.34-.34.08-.82.12-1.42.12-1.03,0-2.08-.16-3.17-.46-1.09-.31-2.07-.72-2.96-1.23l-2.02,4.56c.94.57,2.13,1.03,3.58,1.38,1.45.35,2.95.53,4.51.53,1.93,0,3.53-.29,4.8-.86,1.27-.57,2.23-1.34,2.88-2.28.65-.95.97-1.98.97-3.12,0-.97-.19-1.79-.56-2.44-.37-.65-.86-1.19-1.47-1.59Z"/>
          <path class="cls-2" d="m315.65,28.93c-1.21-.57-2.53-.85-3.97-.85-1.56,0-2.96.32-4.21.96s-2.23,1.52-2.95,2.65c-.72,1.13-1.07,2.43-1.07,3.9s.36,2.72,1.09,3.86c.73,1.14,1.75,2.04,3.06,2.69,1.32.65,2.86.98,4.63.98,1.45,0,2.69-.2,3.73-.6,1.03-.4,1.91-.98,2.61-1.74l-3.13-3.16c-.48.35-.93.62-1.37.8-.43.18-.99.27-1.66.27s-1.21-.11-1.67-.33c-.46-.22-.81-.55-1.06-1-.07-.12-.12-.24-.17-.37h10.07c.02-.21.04-.45.05-.7.02-.26.03-.49.03-.7,0-1.64-.37-3.02-1.1-4.14-.73-1.11-1.71-1.95-2.92-2.52Zm-5.2,3.57c.36-.22.79-.33,1.29-.33s.92.11,1.27.33.63.53.84.93c.1.2.18.43.23.68h-4.68c.05-.25.12-.47.22-.68.19-.4.47-.71.84-.93Z"/>
          <path class="cls-2" d="m327.64,33.07c.38-.21.79-.32,1.23-.32.51,0,.99.15,1.42.45.43.3.8.79,1.1,1.46l4.64-2.28c-.48-1.34-1.34-2.4-2.6-3.16-1.26-.76-2.77-1.14-4.54-1.14-1.66,0-3.14.32-4.43.96s-2.3,1.52-3.04,2.65-1.1,2.43-1.1,3.9.37,2.77,1.1,3.91,1.75,2.03,3.04,2.67,2.77.96,4.43.96c1.77,0,3.28-.38,4.54-1.14,1.26-.76,2.12-1.81,2.6-3.16l-4.64-2.28c-.3.67-.67,1.16-1.1,1.46-.43.3-.91.45-1.42.45-.44,0-.85-.11-1.23-.32-.38-.21-.68-.53-.9-.96-.22-.42-.33-.96-.33-1.59s.11-1.16.33-1.58c.22-.42.52-.73.9-.94Z"/>
          <path class="cls-2" d="m346.83,35.16c0,.71-.1,1.28-.29,1.71-.19.43-.45.74-.76.93-.31.19-.64.28-1,.28-.58,0-1.04-.2-1.38-.61-.34-.41-.5-1.12-.5-2.15v-6.98h-6v8.01c0,1.57.27,2.86.8,3.86.53,1,1.26,1.73,2.19,2.2s1.97.7,3.12.7,2.12-.27,3.06-.81c.39-.22.73-.51,1.05-.83v1.37h5.7v-14.51h-6v6.82Z"/>
          <path class="cls-2" d="m360.74,29.92v-1.58h-5.7v14.51h6v-6.45c0-1.15.29-1.96.86-2.43.57-.47,1.31-.7,2.22-.7.21,0,.42,0,.62.03.2.02.44.04.7.08v-5.31c-1.36,0-2.53.28-3.5.85-.46.27-.85.6-1.19.99Z"/>
          <rect class="cls-2" x="366.68" y="28.34" width="6" height="14.51"/>
          <path class="cls-2" d="m369.68,21.07c-1.1,0-1.97.29-2.63.88-.65.58-.98,1.31-.98,2.18s.33,1.59.98,2.18c.65.58,1.53.88,2.63.88s1.97-.3,2.63-.89c.65-.59.98-1.35.98-2.27,0-.87-.33-1.57-.98-2.12-.65-.55-1.53-.82-2.63-.82Z"/>
          <path class="cls-2" d="m384.14,38.19c-.39.27-.84.4-1.35.4-.35,0-.65-.12-.89-.37-.24-.25-.36-.59-.36-1.03v-3.66h2.97v-4.38h-2.97v-4.06h-6v4.06h-1.99v4.38h1.99v3.71c0,2,.56,3.48,1.67,4.44,1.11.96,2.67,1.45,4.67,1.45.71,0,1.38-.06,2.03-.19.65-.12,1.2-.32,1.66-.58l-1.43-4.17Z"/>
          <path class="cls-2" d="m396.84,28.34l-3.05,7.78-3-7.78h-6.16l6.11,14.68c-.08.1-.17.2-.27.27-.28.22-.69.33-1.22.33-.35,0-.72-.07-1.1-.21-.38-.14-.72-.33-1.02-.56l-1.99,4.11c.49.39,1.15.7,1.98.94.82.24,1.63.36,2.43.36,1.03,0,1.97-.15,2.83-.45.86-.3,1.64-.82,2.33-1.57.7-.74,1.31-1.78,1.84-3.1l5.97-14.8h-5.68Z"/>
        </g>
        <g>
          <path class="cls-1" d="m134.52,57.03c-.88-.74-2.13-1.11-3.74-1.11-.78,0-1.56.1-2.35.3s-1.46.48-2.02.85l1.17,2.36c.34-.27.75-.48,1.24-.63.49-.15.97-.23,1.44-.23.73,0,1.26.15,1.6.45.3.27.46.65.49,1.12h-1.96c-1.02,0-1.86.12-2.5.36s-1.12.58-1.43,1.02c-.31.44-.47.97-.47,1.58,0,.57.14,1.09.43,1.55s.7.83,1.25,1.1c.55.27,1.22.4,2.01.4.86,0,1.56-.17,2.09-.52.36-.24.63-.55.83-.94v1.3h3.23v-5.5c0-1.57-.44-2.72-1.32-3.46Zm-2.83,6.65c-.31.19-.66.28-1.03.28-.4,0-.72-.09-.95-.27-.23-.18-.35-.43-.35-.73s.11-.55.34-.73c.23-.18.62-.27,1.18-.27h1.5v.86c-.15.39-.37.68-.68.87Z"/>
          <path class="cls-1" d="m146.49,56.39c-.62-.31-1.32-.47-2.08-.47-.83,0-1.57.18-2.23.54-.34.19-.65.43-.91.71v-1.09h-3.31v9.9h3.47v-4.79c0-.55.09-.99.26-1.33.17-.34.41-.59.71-.76.3-.16.64-.25,1.01-.25.51,0,.91.16,1.2.48.29.32.43.84.43,1.54v5.1h3.47v-5.66c0-1.02-.18-1.86-.54-2.5-.36-.65-.85-1.12-1.47-1.43Z"/>
          <path class="cls-1" d="m157.78,56.95c-.18-.18-.36-.35-.58-.48-.59-.37-1.31-.55-2.16-.55-.9,0-1.72.21-2.46.62-.74.41-1.32,1-1.76,1.76-.44.76-.66,1.67-.66,2.71s.22,1.97.66,2.73c.44.76,1.03,1.35,1.76,1.77.74.42,1.56.63,2.46.63s1.63-.18,2.21-.55c.26-.16.49-.37.69-.62v1h3.31v-13.56h-3.47v4.52Zm-.22,5.36c-.18.36-.43.63-.74.81-.31.18-.66.27-1.05.27s-.76-.09-1.07-.27c-.31-.18-.56-.45-.74-.81-.18-.36-.27-.79-.27-1.29s.09-.92.27-1.27c.18-.35.43-.61.74-.79.31-.18.67-.27,1.07-.27s.74.09,1.05.27c.31.18.56.45.74.79.18.35.27.77.27,1.27s-.09.93-.27,1.29Z"/>
          <polygon class="cls-1" points="168.82 65.99 172.44 65.99 172.44 61.61 178.08 61.61 178.08 58.81 172.44 58.81 172.44 56 178.85 56 178.85 53.2 168.82 53.2 168.82 65.99"/>
          <path class="cls-1" d="m187.96,56.57c-.85-.43-1.81-.65-2.9-.65s-2.05.22-2.89.65-1.5,1.03-1.98,1.8-.72,1.65-.72,2.65.24,1.88.72,2.66c.48.77,1.14,1.38,1.98,1.82s1.8.66,2.89.66,2.05-.22,2.9-.66c.85-.44,1.51-1.04,1.98-1.82.47-.77.71-1.66.71-2.66s-.24-1.88-.71-2.65c-.48-.77-1.14-1.37-1.98-1.8Zm-1.09,5.74c-.18.36-.43.63-.74.81-.31.18-.67.27-1.07.27s-.74-.09-1.05-.27c-.31-.18-.56-.45-.75-.81-.19-.36-.28-.79-.28-1.29s.09-.92.28-1.27c.19-.35.44-.61.75-.79.31-.18.66-.27,1.05-.27s.76.09,1.07.27c.31.18.56.45.74.79.18.35.27.77.27,1.27s-.09.93-.27,1.29Z"/>
          <path class="cls-1" d="m195.49,57.29v-1.2h-3.31v9.9h3.47v-4.55c0-.86.22-1.49.66-1.87.44-.38,1.01-.58,1.72-.58.13,0,.26,0,.37,0,.12,0,.25.02.41.05v-3.12c-.94,0-1.74.19-2.39.56-.37.21-.68.48-.93.81Z"/>
          <path class="cls-1" d="m207.57,56.52c-.8-.4-1.69-.59-2.67-.59-1.04,0-1.97.22-2.8.65s-1.48,1.04-1.95,1.81c-.47.77-.7,1.65-.7,2.64s.24,1.87.72,2.64,1.16,1.38,2.03,1.83c.87.45,1.89.67,3.06.67.95,0,1.77-.14,2.47-.41s1.28-.67,1.75-1.2l-1.83-1.9c-.34.29-.68.51-1.03.65-.35.14-.76.21-1.25.21-.52,0-.97-.09-1.35-.28-.38-.19-.67-.46-.87-.81-.09-.15-.15-.32-.2-.49h7.19c.01-.13.02-.28.04-.44s.02-.3.02-.42c0-1.1-.24-2.03-.71-2.79-.47-.77-1.11-1.35-1.92-1.75Zm-3.74,2.15c.31-.18.67-.27,1.09-.27s.78.09,1.09.27c.31.18.55.44.73.77.11.2.17.42.2.66h-4.03c.04-.23.1-.45.2-.65.17-.34.41-.59.72-.78Z"/>
          <path class="cls-1" d="m220.27,56.39c-.62-.31-1.32-.47-2.08-.47-.83,0-1.57.18-2.23.54-.34.19-.65.43-.91.71v-1.09h-3.31v9.9h3.47v-4.79c0-.55.09-.99.26-1.33.17-.34.41-.59.71-.76.3-.16.64-.25,1.01-.25.51,0,.91.16,1.2.48.29.32.43.84.43,1.54v5.1h3.47v-5.66c0-1.02-.18-1.86-.54-2.5-.36-.65-.85-1.12-1.47-1.43Z"/>
          <path class="cls-1" d="m231.73,60.66c-.35-.21-.73-.37-1.15-.48-.42-.11-.84-.19-1.25-.25-.41-.06-.79-.11-1.14-.16-.35-.06-.62-.13-.83-.24-.21-.1-.31-.25-.31-.45s.12-.36.36-.49.65-.2,1.23-.2c.44,0,.9.05,1.39.16.49.1.97.3,1.46.58l1.04-2.36c-.49-.28-1.09-.49-1.8-.63-.71-.14-1.42-.21-2.11-.21-1.03,0-1.91.14-2.63.43-.72.29-1.26.68-1.64,1.17s-.56,1.06-.56,1.69c0,.56.1,1.02.31,1.39.21.37.48.66.83.87.35.21.73.37,1.15.48s.84.19,1.25.25c.41.06.79.12,1.14.16.35.05.63.12.84.21.21.09.32.23.32.43,0,.21-.11.37-.34.49-.23.12-.63.18-1.22.18s-1.21-.08-1.83-.25-1.16-.39-1.63-.67l-1.04,2.38c.49.29,1.13.54,1.93.73.8.19,1.62.29,2.46.29,1.07,0,1.97-.15,2.69-.44s1.27-.68,1.64-1.17.56-1.03.56-1.64c0-.56-.1-1.02-.31-1.38s-.48-.65-.83-.86Z"/>
          <path class="cls-1" d="m236.03,51.3c-.63,0-1.14.18-1.53.53-.39.35-.58.79-.58,1.32s.19.96.58,1.32c.39.35.9.53,1.53.53s1.16-.18,1.54-.54c.38-.36.58-.81.58-1.36s-.2-.95-.58-1.29c-.39-.34-.9-.5-1.53-.5Z"/>
          <rect class="cls-1" x="234.3" y="56.09" width="3.47" height="9.9"/>
          <path class="cls-1" d="m243.89,58.96c.33-.18.69-.27,1.1-.27s.77.11,1.11.32c.34.21.63.55.86,1.01l2.69-1.37c-.34-.86-.92-1.53-1.74-2.01-.82-.47-1.78-.71-2.9-.71s-2.07.22-2.93.65-1.53,1.03-2.02,1.8-.73,1.65-.73,2.65.24,1.88.73,2.66c.49.77,1.16,1.38,2.02,1.82s1.84.66,2.93.66,2.09-.24,2.9-.71c.82-.47,1.39-1.14,1.74-2.01l-2.69-1.37c-.23.46-.52.8-.86,1.01-.34.21-.71.32-1.11.32s-.77-.09-1.1-.27-.59-.45-.78-.8c-.19-.35-.28-.79-.28-1.3s.09-.92.28-1.27c.19-.35.45-.61.78-.79Z"/>
          <path class="cls-1" d="m258.24,60.66c-.35-.21-.73-.37-1.15-.48-.42-.11-.84-.19-1.25-.25-.41-.06-.79-.11-1.14-.16-.35-.06-.62-.13-.83-.24-.21-.1-.31-.25-.31-.45s.12-.36.36-.49.65-.2,1.23-.2c.44,0,.9.05,1.39.16.49.1.97.3,1.46.58l1.04-2.36c-.49-.28-1.09-.49-1.8-.63-.71-.14-1.42-.21-2.11-.21-1.03,0-1.91.14-2.63.43-.72.29-1.26.68-1.64,1.17s-.56,1.06-.56,1.69c0,.56.1,1.02.31,1.39.21.37.48.66.83.87.35.21.73.37,1.15.48s.84.19,1.25.25c.41.06.79.12,1.14.16.35.05.63.12.84.21.21.09.32.23.32.43,0,.21-.11.37-.34.49-.23.12-.63.18-1.22.18s-1.21-.08-1.83-.25-1.16-.39-1.63-.67l-1.04,2.38c.49.29,1.13.54,1.93.73.8.19,1.62.29,2.46.29,1.07,0,1.97-.15,2.69-.44s1.27-.68,1.64-1.17.56-1.03.56-1.64c0-.56-.1-1.02-.31-1.38s-.48-.65-.83-.86Z"/>
          <path class="cls-1" d="m270.32,53.2l-5.65,12.79h3.69l1-2.48h5.42l1,2.48h3.76l-5.66-12.79h-3.56Zm.11,7.64l1.64-4.09,1.64,4.09h-3.28Z"/>
          <path class="cls-1" d="m287.6,60.66c-.35-.21-.73-.37-1.15-.48-.42-.11-.84-.19-1.25-.25-.41-.06-.79-.11-1.14-.16-.35-.06-.62-.13-.83-.24-.21-.1-.31-.25-.31-.45s.12-.36.36-.49.65-.2,1.23-.2c.44,0,.9.05,1.39.16.49.1.97.3,1.46.58l1.04-2.36c-.49-.28-1.09-.49-1.8-.63-.71-.14-1.42-.21-2.11-.21-1.03,0-1.91.14-2.63.43-.72.29-1.26.68-1.64,1.17s-.56,1.06-.56,1.69c0,.56.1,1.02.31,1.39.21.37.48.66.83.87.35.21.73.37,1.15.48s.84.19,1.25.25c.41.06.79.12,1.14.16.35.05.63.12.84.21.21.09.32.23.32.43,0,.21-.11.37-.34.49-.23.12-.63.18-1.22.18s-1.21-.08-1.83-.25-1.16-.39-1.63-.67l-1.04,2.38c.49.29,1.13.54,1.93.73.8.19,1.62.29,2.46.29,1.07,0,1.97-.15,2.69-.44s1.27-.68,1.64-1.17.56-1.03.56-1.64c0-.56-.1-1.02-.31-1.38s-.48-.65-.83-.86Z"/>
          <path class="cls-1" d="m297.52,60.66c-.35-.21-.73-.37-1.15-.48-.42-.11-.84-.19-1.25-.25-.41-.06-.79-.11-1.14-.16-.35-.06-.62-.13-.83-.24-.21-.1-.31-.25-.31-.45s.12-.36.36-.49.65-.2,1.23-.2c.44,0,.9.05,1.39.16.49.1.97.3,1.46.58l1.04-2.36c-.49-.28-1.09-.49-1.8-.63-.71-.14-1.42-.21-2.11-.21-1.03,0-1.91.14-2.63.43-.72.29-1.26.68-1.64,1.17s-.56,1.06-.56,1.69c0,.56.1,1.02.31,1.39.21.37.48.66.83.87.35.21.73.37,1.15.48s.84.19,1.25.25c.41.06.79.12,1.14.16.35.05.63.12.84.21.21.09.32.23.32.43,0,.21-.11.37-.34.49-.23.12-.63.18-1.22.18s-1.21-.08-1.83-.25-1.16-.39-1.63-.67l-1.04,2.38c.49.29,1.13.54,1.93.73.8.19,1.62.29,2.46.29,1.07,0,1.97-.15,2.69-.44s1.27-.68,1.64-1.17.56-1.03.56-1.64c0-.56-.1-1.02-.31-1.38s-.48-.65-.83-.86Z"/>
          <path class="cls-1" d="m307.95,56.57c-.85-.43-1.81-.65-2.9-.65s-2.05.22-2.89.65-1.5,1.03-1.98,1.8-.72,1.65-.72,2.65.24,1.88.72,2.66c.48.77,1.14,1.38,1.98,1.82s1.8.66,2.89.66,2.05-.22,2.9-.66c.85-.44,1.51-1.04,1.98-1.82.47-.77.71-1.66.71-2.66s-.24-1.88-.71-2.65c-.48-.77-1.14-1.37-1.98-1.8Zm-1.09,5.74c-.18.36-.43.63-.74.81-.31.18-.67.27-1.07.27s-.74-.09-1.05-.27c-.31-.18-.56-.45-.75-.81-.19-.36-.28-.79-.28-1.29s.09-.92.28-1.27c.19-.35.44-.61.75-.79.31-.18.66-.27,1.05-.27s.76.09,1.07.27c.31.18.56.45.74.79.18.35.27.77.27,1.27s-.09.93-.27,1.29Z"/>
          <path class="cls-1" d="m316.13,58.96c.33-.18.69-.27,1.1-.27s.77.11,1.11.32c.34.21.63.55.86,1.01l2.69-1.37c-.34-.86-.92-1.53-1.74-2.01-.82-.47-1.78-.71-2.9-.71s-2.07.22-2.93.65-1.53,1.03-2.02,1.8-.73,1.65-.73,2.65.24,1.88.73,2.66c.49.77,1.16,1.38,2.02,1.82s1.84.66,2.93.66,2.09-.24,2.9-.71c.82-.47,1.39-1.14,1.74-2.01l-2.69-1.37c-.23.46-.52.8-.86,1.01-.34.21-.71.32-1.11.32s-.77-.09-1.1-.27-.59-.45-.78-.8c-.19-.35-.28-.79-.28-1.3s.09-.92.28-1.27c.19-.35.45-.61.78-.79Z"/>
          <path class="cls-1" d="m324.82,51.3c-.63,0-1.14.18-1.53.53-.39.35-.58.79-.58,1.32s.19.96.58,1.32c.39.35.9.53,1.53.53s1.16-.18,1.54-.54c.38-.36.58-.81.58-1.36s-.2-.95-.58-1.29c-.39-.34-.9-.5-1.53-.5Z"/>
          <rect class="cls-1" x="323.09" y="56.09" width="3.47" height="9.9"/>
          <path class="cls-1" d="m336.69,57.03c-.88-.74-2.13-1.11-3.74-1.11-.78,0-1.56.1-2.35.3s-1.46.48-2.02.85l1.17,2.36c.34-.27.75-.48,1.24-.63.49-.15.97-.23,1.44-.23.73,0,1.26.15,1.6.45.3.27.46.65.49,1.12h-1.96c-1.02,0-1.86.12-2.5.36s-1.12.58-1.43,1.02c-.31.44-.47.97-.47,1.58,0,.57.14,1.09.43,1.55s.7.83,1.25,1.1c.55.27,1.22.4,2.01.4.86,0,1.56-.17,2.09-.52.36-.24.63-.55.83-.94v1.3h3.23v-5.5c0-1.57-.44-2.72-1.32-3.46Zm-2.83,6.65c-.31.19-.66.28-1.03.28-.4,0-.72-.09-.95-.27-.23-.18-.35-.43-.35-.73s.11-.55.34-.73c.23-.18.62-.27,1.18-.27h1.5v.86c-.15.39-.37.68-.68.87Z"/>
          <path class="cls-1" d="m345.05,63.47c-.3,0-.55-.1-.75-.3s-.29-.48-.29-.83v-3.29h2.27v-2.59h-2.27v-2.58h-3.47v2.58h-1.44v2.59h1.44v3.33c0,1.27.35,2.21,1.06,2.84s1.69.94,2.96.94c.46,0,.91-.05,1.33-.14.43-.09.79-.23,1.08-.43l-.86-2.43c-.29.21-.65.31-1.06.31Z"/>
          <path class="cls-1" d="m349.96,51.3c-.63,0-1.14.18-1.53.53-.39.35-.58.79-.58,1.32s.19.96.58,1.32c.39.35.9.53,1.53.53s1.16-.18,1.54-.54c.38-.36.58-.81.58-1.36s-.2-.95-.58-1.29c-.39-.34-.9-.5-1.53-.5Z"/>
          <rect class="cls-1" x="348.23" y="56.09" width="3.47" height="9.9"/>
          <path class="cls-1" d="m361.74,56.57c-.85-.43-1.81-.65-2.9-.65s-2.05.22-2.89.65-1.5,1.03-1.98,1.8-.72,1.65-.72,2.65.24,1.88.72,2.66c.48.77,1.14,1.38,1.98,1.82s1.8.66,2.89.66,2.05-.22,2.9-.66c.85-.44,1.51-1.04,1.98-1.82.47-.77.71-1.66.71-2.66s-.24-1.88-.71-2.65c-.48-.77-1.14-1.37-1.98-1.8Zm-1.09,5.74c-.18.36-.43.63-.74.81-.31.18-.67.27-1.07.27s-.74-.09-1.05-.27c-.31-.18-.56-.45-.75-.81-.19-.36-.28-.79-.28-1.29s.09-.92.28-1.27c.19-.35.44-.61.75-.79.31-.18.66-.27,1.05-.27s.76.09,1.07.27c.31.18.56.45.74.79.18.35.27.77.27,1.27s-.09.93-.27,1.29Z"/>
          <path class="cls-1" d="m375.97,57.82c-.36-.65-.85-1.12-1.47-1.43-.62-.31-1.32-.47-2.08-.47-.83,0-1.57.18-2.23.54-.34.19-.65.43-.91.71v-1.09h-3.31v9.9h3.47v-4.79c0-.55.09-.99.26-1.33.17-.34.41-.59.71-.76.3-.16.64-.25,1.01-.25.51,0,.91.16,1.2.48.29.32.43.84.43,1.54v5.1h3.47v-5.66c0-1.02-.18-1.86-.54-2.5Z"/>
        </g>
      </g>
      <g>
        <g>
          <path class="cls-4" d="m77.55,50.68c0,.1-.02.19-.03.29-1.7,16.46-29.35,29.55-29.35,29.55,0,0-27.62-13.08-29.34-29.52-.01-.1-.02-.21-.03-.31h10.38c5.88.33,12.28.5,18.89.5s13.01-.17,18.89-.5h10.58Z"/>
          <path class="cls-4" d="m77.61,10.63v21.55H18.75V10.63c0-1.35.95-2.52,2.28-2.77,7.13-1.37,15.67-2.45,25.33-2.58,11.21-.14,21,1.05,28.95,2.58,1.33.25,2.3,1.42,2.3,2.77Z"/>
          <path class="cls-1" d="m83.46,7.3v24.87h-2.94V7.3c0-.71-.5-1.31-1.19-1.44-10.97-2.06-22.18-3.04-33.32-2.9-9.75.12-19.56,1.09-29.15,2.9-.7.13-1.21.74-1.21,1.45v24.87h-2.94V7.3c0-.31.03-.6.09-.89.01-.07.03-.15.05-.22.42-1.62,1.76-2.91,3.47-3.23C26.06,1.13,36.04.13,45.97.01c11.34-.13,22.74.85,33.91,2.95,1.7.32,3.02,1.59,3.45,3.21.05.19.08.38.11.57.03.18.04.37.04.56Z"/>
          <path class="cls-1" d="m83.46,50.68v.13c0,.51-.02,1.02-.07,1.53,0,0,0,.01,0,.02,0,0,0,0,0,.01-1.66,19.18-33.31,33.94-34.7,34.57l-.61.28-.61-.28c-1.02-.47-18.7-8.71-28.44-20.75-.02-.03-.04-.05-.06-.07-3.22-4-5.57-8.43-6.13-13.12,0-.02,0-.05,0-.07-.08-.7-.13-1.4-.13-2.11v-.13h2.94v.13c0,16.67,27.92,30.96,32.44,33.16,4.53-2.21,32.44-16.49,32.44-33.16v-.13h2.94Z"/>
        </g>
        <g>
          <g>
            <path class="cls-1" d="m35.93,25.79c-.65,0-1.22.44-1.4,1.06h-2.25l-4.96-5.08c.31-.42.48-.92.48-1.44,0-1.34-1.09-2.43-2.43-2.43s-2.43,1.09-2.43,2.43,1.09,2.42,2.43,2.42c.45,0,.89-.13,1.27-.36l5.09,5.21.14.17h2.71c.21.56.74.93,1.35.93.8,0,1.45-.65,1.45-1.45s-.65-1.45-1.45-1.45Zm-10.55-4.04c-.78,0-1.42-.63-1.42-1.41s.64-1.42,1.42-1.42,1.42.63,1.42,1.42-.64,1.41-1.42,1.41Z"/>
            <path class="cls-1" d="m43.05,24.82l-.03-3.69h0v-.38s-3.49-.01-3.49-.01c-.13-.5-.58-.87-1.12-.87-.64,0-1.16.52-1.16,1.16s.52,1.16,1.16,1.16c.49,0,.9-.3,1.07-.72h2.81s.03,3.32.03,3.32c-.68.15-1.2.76-1.2,1.49,0,.84.69,1.53,1.53,1.53s1.53-.69,1.53-1.53c0-.71-.48-1.3-1.13-1.47Zm-.4,2.27c-.44,0-.79-.36-.79-.79s.36-.79.79-.79.79.36.79.79-.35.79-.79.79Z"/>
            <path class="cls-1" d="m46.15,21.45l-.03-3.69h0v-.38s-3.49-.01-3.49-.01c-.13-.5-.58-.87-1.12-.87-.64,0-1.16.52-1.16,1.16s.52,1.16,1.16,1.16c.49,0,.9-.3,1.07-.72h2.81s.03,3.32.03,3.32c-.68.15-1.19.76-1.19,1.49,0,.84.69,1.53,1.53,1.53s1.53-.69,1.53-1.53c0-.71-.48-1.3-1.13-1.47Zm-.4,2.27c-.44,0-.79-.36-.79-.79s.36-.79.79-.79.79.36.79.79-.36.79-.79.79Z"/>
            <path class="cls-1" d="m45.45,13.63c-.75,0-1.37.56-1.46,1.29h-1.32c-.03-.61-.54-1.1-1.16-1.1s-1.16.52-1.16,1.16.52,1.16,1.16,1.16c.46,0,.86-.28,1.05-.67h1.46c.16.64.74,1.12,1.44,1.12.82,0,1.48-.67,1.48-1.49s-.67-1.48-1.48-1.48Zm0,2.33c-.46,0-.84-.38-.84-.84s.38-.84.84-.84.84.38.84.84-.38.84-.84.84Z"/>
          </g>
          <path class="cls-1" d="m54.91,11.16c-.55,0-1.01.39-1.13.9h-4.26c-.13-.7-.73-1.23-1.46-1.23s-1.34.53-1.46,1.23h-3.96c-.12-.52-.58-.9-1.13-.9-.64,0-1.16.52-1.16,1.16s.52,1.16,1.16,1.16c.55,0,1.02-.39,1.13-.91h3.96c.12.7.73,1.23,1.46,1.23s1.34-.53,1.46-1.23h4.26c.12.52.58.91,1.13.91.64,0,1.16-.52,1.16-1.16s-.52-1.16-1.16-1.16Zm-6.85,2c-.46,0-.84-.38-.84-.84s.38-.84.84-.84.84.38.84.84-.38.84-.84.84Z"/>
          <g>
            <path class="cls-1" d="m70.79,17.9c-1.34,0-2.43,1.09-2.43,2.43,0,.52.17,1.02.47,1.44l-4.95,5.08h-2.25c-.17-.62-.74-1.06-1.39-1.06-.8,0-1.45.66-1.45,1.45s.65,1.45,1.45,1.45c.6,0,1.13-.37,1.35-.93h2.71l.14-.17,5.08-5.21c.38.24.82.36,1.28.36,1.34,0,2.43-1.09,2.43-2.42s-1.09-2.43-2.43-2.43Zm0,3.84c-.78,0-1.42-.63-1.42-1.41s.64-1.42,1.42-1.42,1.41.63,1.41,1.42-.63,1.41-1.41,1.41Z"/>
            <path class="cls-1" d="m57.75,19.87c-.54,0-.99.37-1.12.87h-3.49v.39h0l-.03,3.69c-.65.18-1.13.77-1.13,1.47,0,.84.69,1.53,1.53,1.53s1.53-.69,1.53-1.53c0-.73-.51-1.34-1.19-1.49l.03-3.31h2.81c.17.41.59.71,1.07.71.64,0,1.16-.52,1.16-1.16s-.52-1.16-1.16-1.16Zm-3.45,6.42c0,.44-.36.79-.79.79s-.79-.36-.79-.79.36-.79.79-.79.79.36.79.79Z"/>
            <path class="cls-1" d="m54.65,16.5c-.54,0-.99.37-1.12.87h-3.49s0,.39,0,.39h0l-.03,3.69c-.65.18-1.13.77-1.13,1.47,0,.84.68,1.53,1.53,1.53s1.53-.69,1.53-1.53c0-.73-.51-1.34-1.2-1.49l.03-3.31h2.81c.17.41.59.71,1.07.71.64,0,1.16-.52,1.16-1.16s-.52-1.16-1.16-1.16Zm-3.45,6.42c0,.44-.36.79-.79.79s-.79-.36-.79-.79.35-.79.79-.79.79.36.79.79Z"/>
            <path class="cls-1" d="m54.65,13.82c-.63,0-1.13.49-1.16,1.11h-1.32c-.1-.73-.71-1.3-1.46-1.3-.82,0-1.49.67-1.49,1.48s.67,1.49,1.49,1.49c.7,0,1.27-.48,1.44-1.13h1.46c.19.39.59.67,1.05.67.64,0,1.16-.52,1.16-1.16s-.52-1.16-1.16-1.16Zm-3.94,2.14c-.46,0-.84-.38-.84-.84s.38-.84.84-.84.84.38.84.84-.38.84-.84.84Z"/>
          </g>
        </g>
        <g>
          <g>
            <path class="cls-1" d="m36.81,52.83c-.56,0-1.05.34-1.25.86h-2.51l-.13.15-4.72,4.84c-.35-.22-.76-.34-1.18-.34-1.24,0-2.25,1.01-2.25,2.25s1.01,2.25,2.25,2.25,2.25-1.01,2.25-2.25c0-.48-.15-.95-.44-1.34l4.6-4.71h2.09c.16.57.69.98,1.3.98.74,0,1.35-.6,1.35-1.35s-.6-1.35-1.35-1.35Zm-9.79,9.07c-.72,0-1.31-.59-1.31-1.31s.59-1.31,1.31-1.31,1.31.59,1.31,1.31-.59,1.31-1.31,1.31Z"/>
            <path class="cls-1" d="m43.05,53.64c-.78,0-1.42.64-1.42,1.42,0,.67.47,1.24,1.11,1.38l-.03,3.07h-2.61c-.16-.38-.54-.66-.99-.66-.6,0-1.08.49-1.08,1.08s.48,1.08,1.08,1.08c.5,0,.92-.35,1.04-.81h3.24v-.36h0l.03-3.42c.6-.17,1.05-.71,1.05-1.37,0-.78-.64-1.42-1.42-1.42Zm0,2.16c-.4,0-.74-.33-.74-.74s.33-.74.74-.74.74.33.74.74-.33.74-.74.74Z"/>
            <path class="cls-1" d="m45.92,56.77c-.78,0-1.42.64-1.42,1.42,0,.67.47,1.24,1.11,1.38l-.03,3.07h-2.61c-.16-.38-.54-.66-1-.66-.59,0-1.08.48-1.08,1.08s.49,1.08,1.08,1.08c.5,0,.92-.34,1.04-.81h3.24v-.36h0l.03-3.42c.6-.17,1.05-.71,1.05-1.37,0-.78-.64-1.42-1.42-1.42Zm0,2.16c-.41,0-.74-.33-.74-.74s.33-.74.74-.74.74.33.74.74-.33.74-.74.74Z"/>
            <path class="cls-1" d="m45.65,64.05c-.64,0-1.18.45-1.33,1.05h-1.36c-.17-.37-.54-.62-.97-.62-.59,0-1.08.49-1.08,1.08s.49,1.08,1.08,1.08,1.05-.46,1.07-1.03h1.23c.09.68.66,1.2,1.36,1.2.76,0,1.38-.62,1.38-1.38s-.62-1.38-1.38-1.38Zm0,2.16c-.43,0-.78-.35-.78-.78s.35-.78.78-.78.78.35.78.78-.35.78-.78.78Z"/>
          </g>
          <path class="cls-1" d="m54.41,66.94c-.52,0-.94.36-1.05.84h-3.95c-.12-.64-.68-1.14-1.35-1.14s-1.24.49-1.35,1.14h-3.67c-.11-.48-.54-.84-1.05-.84-.59,0-1.08.48-1.08,1.08s.49,1.08,1.08,1.08c.52,0,.94-.36,1.05-.84h3.67c.11.65.68,1.14,1.35,1.14s1.24-.49,1.35-1.14h3.95c.11.48.54.84,1.05.84.6,0,1.08-.48,1.08-1.08s-.48-1.08-1.08-1.08Zm-6.36,1.86c-.43,0-.78-.35-.78-.78s.35-.78.78-.78.78.35.78.78-.35.78-.78.78Z"/>
          <g>
            <path class="cls-1" d="m69.14,58.34c-.42,0-.83.12-1.18.34l-4.71-4.84-.13-.15h-2.51c-.2-.52-.69-.86-1.25-.86-.74,0-1.35.6-1.35,1.35s.61,1.35,1.35,1.35c.61,0,1.14-.4,1.3-.98h2.09l4.6,4.71c-.29.38-.44.85-.44,1.34,0,1.24,1.01,2.25,2.25,2.25s2.25-1.01,2.25-2.25-1.01-2.25-2.25-2.25Zm0,3.57c-.72,0-1.31-.59-1.31-1.31s.59-1.31,1.31-1.31,1.31.59,1.31,1.31-.59,1.31-1.31,1.31Z"/>
            <path class="cls-1" d="m57.05,58.86c-.45,0-.84.28-1,.67h-2.61s-.02-3.08-.02-3.08c.63-.14,1.1-.71,1.1-1.38,0-.78-.64-1.42-1.42-1.42s-1.42.64-1.42,1.42c0,.66.45,1.2,1.05,1.37l.03,3.42h0v.35s3.23.01,3.23.01c.12.46.54.81,1.04.81.6,0,1.08-.49,1.08-1.08s-.48-1.08-1.08-1.08Zm-4.68-3.8c0-.41.33-.74.74-.74s.74.33.74.74-.33.74-.74.74-.74-.33-.74-.74Z"/>
            <path class="cls-1" d="m54.18,61.98c-.45,0-.83.28-.99.67h-2.61s-.03-3.08-.03-3.08c.63-.14,1.11-.71,1.11-1.38,0-.78-.64-1.42-1.42-1.42s-1.42.64-1.42,1.42c0,.65.45,1.2,1.05,1.37l.03,3.42h0v.35h3.24c.12.48.54.82,1.04.82.6,0,1.08-.48,1.08-1.08s-.48-1.08-1.08-1.08Zm-4.68-3.8c0-.41.33-.74.74-.74s.74.33.74.74-.33.74-.74.74-.74-.33-.74-.74Z"/>
            <path class="cls-1" d="m54.18,64.47c-.43,0-.8.25-.97.62h-1.35c-.15-.59-.69-1.04-1.33-1.04-.76,0-1.38.62-1.38,1.38s.62,1.38,1.38,1.38c.7,0,1.27-.53,1.36-1.2h1.23c.03.57.49,1.03,1.07,1.03s1.08-.49,1.08-1.08-.48-1.08-1.08-1.08Zm-3.66,1.73c-.43,0-.78-.35-.78-.78s.35-.78.78-.78.78.35.78.78-.35.78-.78.78Z"/>
          </g>
        </g>
        <g>
          <polygon class="cls-3" points="61.52 43.65 67.85 43.65 67.85 40.5 67.85 39.79 61.52 39.79 61.52 39.1 61.52 37.19 68.74 37.19 68.74 33.33 56.4 33.33 56.4 38.94 56.4 40.04 56.4 48.51 61.52 48.51 61.52 43.65"/>
          <path class="cls-3" d="m83.3,40.84c-.19-.03-.38-.06-.58-.08l-3.25-7.44h-5.03l-2.77,6.33-.46,1.06-3.4,7.78h5.21l1.02-2.65h5.77l1.02,2.65h5.29l-2.76-6.3-.1-.24s.06.01.1.01c9.2,1.33,11.71,2.86,11.71,3.58s-2.47,2.22-11.44,3.54c-.63.09-1.3.18-2,.28-4.29.56-9.25.99-14.65,1.3-5.88.33-12.28.5-18.89.5s-13.01-.17-18.89-.5c-5.4-.31-10.36-.74-14.65-1.3-.61-.08-1.2-.16-1.76-.24-9.17-1.33-11.68-2.86-11.68-3.58,0-.68,2.24-2.08,10.19-3.35v6.29h5.03v-3.76l1.14-1.27,3.8,5.02h5.92l-5.64-7.51-.74-.98.06-.07,6.01-6.62h-5.57l-4.99,5.5v-5.5h-5.03v7.75c-6.72,1.06-11.29,2.52-11.29,4.49,0,2.11,5.25,3.64,12.79,4.71,1.89.27,3.92.51,6.05.72,9.23.91,20.25,1.3,29.24,1.3s20.18-.39,29.45-1.32c2.14-.21,4.18-.46,6.07-.73,7.41-1.07,12.56-2.59,12.56-4.68s-5.29-3.66-12.86-4.72Zm-7.86,1.33l.41-1.06.41-1.07.65-1.69.7,1.82.45,1.16.33.85h-2.94Z"/>
          <path class="cls-3" d="m26.37,40.62c0,.1,0,.2,0,.3,0,1.17.21,2.24.63,3.21.42.97,1.01,1.81,1.77,2.52.76.71,1.66,1.25,2.69,1.63,1.03.39,2.16.58,3.37.58,1.49,0,2.81-.26,3.96-.79,1.15-.53,2.1-1.28,2.85-2.24l-3.23-2.89c-.45.56-.95,1-1.49,1.31-.54.31-1.15.47-1.83.47-.54,0-1.02-.09-1.45-.26s-.81-.43-1.11-.76c-.31-.33-.56-.73-.73-1.2-.17-.47-.26-.99-.26-1.57,0-.2.01-.4.03-.59.04-.35.12-.68.23-.98.01-.04.03-.08.05-.12.17-.42.39-.78.68-1.08.31-.33.68-.59,1.11-.76.43-.17.92-.26,1.45-.26.68,0,1.29.16,1.83.47.54.31,1.04.75,1.49,1.31l3.23-2.88c-.75-.98-1.7-1.74-2.85-2.26-1.15-.52-2.47-.78-3.96-.78-1.21,0-2.34.19-3.37.57-1.03.38-1.93.93-2.69,1.64-.76.71-1.35,1.55-1.77,2.51-.25.57-.42,1.18-.52,1.82-.06.35-.1.72-.1,1.1Z"/>
          <path class="cls-3" d="m42.19,39.99s.04.09.07.14c.3.54.7.98,1.2,1.31.5.33,1.05.6,1.65.8s1.2.36,1.79.49c.59.12,1.14.24,1.64.35.5.11.9.24,1.2.4.3.16.46.38.46.65,0,.17-.07.32-.2.45-.13.12-.34.22-.62.28-.28.07-.67.1-1.16.1-.84,0-1.7-.13-2.59-.38-.89-.25-1.7-.59-2.42-1.01l-1.65,3.73c.77.46,1.74.84,2.93,1.13,1.18.29,2.41.43,3.69.43,1.58,0,2.88-.24,3.92-.71,1.04-.47,1.83-1.09,2.36-1.87.53-.77.79-1.62.79-2.55,0-.79-.15-1.46-.46-1.99-.3-.54-.7-.97-1.2-1.3-.26-.17-.54-.33-.82-.47-.26-.13-.53-.24-.81-.33-.59-.2-1.19-.36-1.79-.48-.59-.11-1.14-.22-1.63-.32h0s-.01,0-.02,0c-.5-.1-.9-.23-1.2-.38-.31-.15-.46-.36-.46-.62,0-.17.06-.33.18-.48.13-.14.33-.26.62-.35.29-.09.68-.13,1.17-.13.67,0,1.35.1,2.05.28.7.19,1.43.47,2.18.85l1.54-3.71c-.79-.45-1.69-.78-2.69-1-1-.22-2.01-.32-3.04-.32-1.56,0-2.87.23-3.92.69-1.05.46-1.84,1.08-2.36,1.85s-.79,1.63-.79,2.57c0,.28.02.55.06.8.06.41.17.77.33,1.09Z"/>
        </g>
      </g>
    </g>
  </g>
</svg>