<?xml version="1.0" encoding="utf-8"?>
<!-- Generator: Adobe Illustrator 27.3.1, SVG Export Plug-In . SVG Version: 6.00 Build 0)  -->
<svg version="1.1" id="Layer_2_00000055671909483042434210000008521106693960356003_"
	 xmlns="http://www.w3.org/2000/svg" xmlns:xlink="http://www.w3.org/1999/xlink" x="0px" y="0px" viewBox="0 0 165.5 165.5"
	 style="enable-background:new 0 0 165.5 165.5;" xml:space="preserve">
<style type="text/css">
	.st0{fill:#FFFFFF;}
	.st1{fill:#F18028;}
	.st2{fill:#325396;}
	.st3{fill:#285992;}
</style>
<g id="Layer_1-2">
	<ellipse class="st0" cx="82.9" cy="86" rx="81.3" ry="10.5"/>
	<g>
		<path class="st0" d="M143.9,92.2c0,0.7,0,1.3,0,2c0,1-0.1,1.9-0.2,2.9c0,0.2-0.1,0.4-0.1,0.7c0,0,0,0,0,0c0,0,0,0,0,0
			c-2.2,15.3-14.5,36.2-60.7,58.4c0,0-32.6-14.2-50.1-34.6c0,0-0.1-0.1-0.1-0.1c-5.5-6.9-9.6-14.5-10.5-22.6c0,0,0-0.1,0-0.1
			c0-0.6-0.1-1.1-0.1-1.7V18.8c0-0.1,0.1-0.2,0.1-0.4c15.1-3.9,35.3-7.6,59.4-7.8c25.2-0.1,46.3,3.7,61.9,7.8c0.1,0.3,0.1,0.6,0.2,1
			c-0.5,10.4-0.9,25.4-0.6,43.7c0,2.5,0.1,5.1,0.2,7.7c0.1,2.7,0.2,5.1,0.2,7.2c0,0.7,0.1,1.3,0.1,2c0,0.1,0,0.3,0,0.4
			c0.2,5,0.4,8.2,0.4,10.8C143.9,91.6,143.9,91.9,143.9,92.2L143.9,92.2z"/>
		<g>
			<g>
				<path class="st1" d="M133.5,94.9c0,0.2,0,0.3,0,0.5c-2.9,28.3-50.5,50.8-50.5,50.8s-47.5-22.5-50.5-50.8c0-0.2,0-0.3,0-0.5h17.9
					c10.1,0.6,21.1,0.9,32.5,0.9s22.4-0.3,32.5-0.9L133.5,94.9L133.5,94.9z"/>
				<path class="st1" d="M133.6,26v37.1H32.3V26c0-2.3,1.6-4.3,3.9-4.8c12.3-2.4,27-4.2,43.6-4.4c19.3-0.2,36.1,1.8,49.8,4.4
					C131.9,21.7,133.5,23.7,133.6,26L133.6,26z"/>
				<path class="st2" d="M143.6,20.3v42.8h-5.1V20.3c0-1.2-0.9-2.3-2.1-2.5c-18.9-3.6-38.2-5.2-57.3-5c-16.8,0.2-33.7,1.9-50.2,5
					C27.8,18,27,19.1,27,20.3v42.8h-5.1V20.3c0-0.5,0.1-1,0.2-1.5c0-0.1,0.1-0.2,0.1-0.4c0.7-2.8,3-5,6-5.6C44.9,9.7,62,8,79.1,7.8
					c19.5-0.2,39.1,1.5,58.3,5.1c2.9,0.6,5.2,2.7,5.9,5.5c0.1,0.3,0.1,0.6,0.2,1C143.6,19.7,143.6,20,143.6,20.3L143.6,20.3z"/>
				<path class="st2" d="M143.6,94.9v0.2c0,0.9,0,1.8-0.1,2.6c0,0,0,0,0,0c0,0,0,0,0,0c-2.9,33-57.3,58.4-59.7,59.5l-1.1,0.5
					l-1.1-0.5c-1.8-0.8-32.2-15-48.9-35.7c0,0-0.1-0.1-0.1-0.1c-5.5-6.9-9.6-14.5-10.5-22.6c0,0,0-0.1,0-0.1
					c-0.1-1.2-0.2-2.4-0.2-3.6v-0.2h5.1v0.2c0,28.7,48,53.3,55.8,57.1c7.8-3.8,55.8-28.4,55.8-57.1v-0.2L143.6,94.9L143.6,94.9z"/>
			</g>
			<g>
				<g>
					<path class="st2" d="M61.9,52.1c-1.1,0-2.1,0.8-2.4,1.8h-3.9L47,45.2c0.5-0.7,0.8-1.6,0.8-2.5c0-2.3-1.9-4.2-4.2-4.2
						s-4.2,1.9-4.2,4.2s1.9,4.2,4.2,4.2c0.8,0,1.5-0.2,2.2-0.6l8.8,9l0.2,0.3h4.7c0.4,1,1.3,1.6,2.3,1.6c1.4,0,2.5-1.1,2.5-2.5
						S63.2,52.1,61.9,52.1L61.9,52.1z M43.7,45.1c-1.3,0-2.4-1.1-2.4-2.4s1.1-2.4,2.4-2.4s2.4,1.1,2.4,2.4S45,45.1,43.7,45.1z"/>
					<path class="st2" d="M74.1,50.4L74,44.1l0,0v-0.7l-6,0c-0.2-0.9-1-1.5-1.9-1.5c-1.1,0-2,0.9-2,2s0.9,2,2,2
						c0.8,0,1.6-0.5,1.8-1.2l4.8,0l0.1,5.7c-1.2,0.3-2.1,1.3-2.1,2.6c0,1.5,1.2,2.6,2.6,2.6S76,54.4,76,53
						C76,51.8,75.2,50.7,74.1,50.4z M73.4,54.3c-0.8,0-1.4-0.6-1.4-1.4s0.6-1.4,1.4-1.4s1.4,0.6,1.4,1.4S74.2,54.3,73.4,54.3z"/>
					<path class="st2" d="M79.4,44.6l-0.1-6.3l0,0v-0.7l-6,0c-0.2-0.9-1-1.5-1.9-1.5c-1.1,0-2,0.9-2,2s0.9,2,2,2
						c0.8,0,1.5-0.5,1.8-1.2l4.8,0l0,5.7c-1.2,0.3-2.1,1.3-2.1,2.6c0,1.5,1.2,2.6,2.6,2.6s2.6-1.2,2.6-2.6
						C81.4,46,80.6,44.9,79.4,44.6z M78.8,48.5c-0.8,0-1.4-0.6-1.4-1.4s0.6-1.4,1.4-1.4s1.4,0.6,1.4,1.4S79.5,48.5,78.8,48.5z"/>
					<path class="st2" d="M78.2,31.2c-1.3,0-2.3,1-2.5,2.2h-2.3c-0.1-1.1-0.9-1.9-2-1.9s-2,0.9-2,2s0.9,2,2,2c0.8,0,1.5-0.5,1.8-1.2
						h2.5c0.3,1.1,1.3,1.9,2.5,1.9c1.4,0,2.6-1.1,2.6-2.6S79.6,31.2,78.2,31.2L78.2,31.2z M78.2,35.2c-0.8,0-1.4-0.7-1.4-1.5
						c0-0.8,0.7-1.4,1.4-1.4s1.4,0.7,1.4,1.4S79,35.2,78.2,35.2z"/>
				</g>
				<path class="st2" d="M94.5,26.9c-0.9,0-1.7,0.7-1.9,1.5h-7.3c-0.2-1.2-1.2-2.1-2.5-2.1s-2.3,0.9-2.5,2.1h-6.8
					c-0.2-0.9-1-1.5-1.9-1.5c-1.1,0-2,0.9-2,2s0.9,2,2,2c0.9,0,1.8-0.7,1.9-1.6h6.8c0.2,1.2,1.2,2.1,2.5,2.1s2.3-0.9,2.5-2.1h7.3
					c0.2,0.9,1,1.6,1.9,1.6c1.1,0,2-0.9,2-2S95.6,26.9,94.5,26.9z M82.7,30.4c-0.8,0-1.4-0.6-1.4-1.4s0.7-1.5,1.4-1.5
					s1.4,0.6,1.4,1.5S83.5,30.4,82.7,30.4z"/>
				<g>
					<path class="st2" d="M121.8,38.5c-2.3,0-4.2,1.9-4.2,4.2c0,0.9,0.3,1.8,0.8,2.5l-8.5,8.7h-3.9c-0.3-1.1-1.3-1.8-2.4-1.8
						c-1.4,0-2.5,1.1-2.5,2.5s1.1,2.5,2.5,2.5c1,0,1.9-0.6,2.3-1.6h4.7l0.2-0.3l8.7-9c0.7,0.4,1.4,0.6,2.2,0.6
						c2.3,0,4.2-1.9,4.2-4.2S124.1,38.5,121.8,38.5L121.8,38.5z M121.8,45.1c-1.3,0-2.4-1.1-2.4-2.4s1.1-2.4,2.4-2.4
						s2.4,1.1,2.4,2.4S123.2,45.1,121.8,45.1z"/>
					<path class="st2" d="M99.4,41.9c-0.9,0-1.7,0.6-1.9,1.5l-6,0v0.7l0,0l-0.1,6.3c-1.1,0.3-1.9,1.3-1.9,2.5c0,1.5,1.2,2.6,2.6,2.6
						s2.6-1.2,2.6-2.6c0-1.2-0.9-2.3-2.1-2.6l0.1-5.7l4.8,0c0.3,0.7,1,1.2,1.8,1.2c1.1,0,2-0.9,2-2S100.5,41.9,99.4,41.9z M93.5,53
						c0,0.8-0.6,1.4-1.4,1.4s-1.4-0.6-1.4-1.4s0.6-1.4,1.4-1.4S93.5,52.2,93.5,53z"/>
					<path class="st2" d="M94.1,36.1c-0.9,0-1.7,0.6-1.9,1.5l-6,0v0.7l0,0l-0.1,6.3C85,45,84.1,46,84.1,47.2c0,1.5,1.2,2.6,2.6,2.6
						s2.6-1.2,2.6-2.6c0-1.2-0.9-2.3-2.1-2.6l0.1-5.7l4.8,0c0.3,0.7,1,1.2,1.8,1.2c1.1,0,2-0.9,2-2C96.1,37,95.2,36.1,94.1,36.1
						L94.1,36.1z M88.1,47.2c0,0.8-0.6,1.4-1.4,1.4s-1.4-0.6-1.4-1.4s0.6-1.4,1.4-1.4S88.1,46.4,88.1,47.2z"/>
					<path class="st2" d="M94.1,31.5c-1.1,0-1.9,0.8-2,1.9h-2.3c-0.2-1.3-1.2-2.2-2.5-2.2c-1.4,0-2.6,1.1-2.6,2.5
						c0,1.4,1.2,2.6,2.6,2.6c1.2,0,2.2-0.8,2.5-1.9h2.5c0.3,0.7,1,1.2,1.8,1.2c1.1,0,2-0.9,2-2C96.1,32.4,95.2,31.5,94.1,31.5
						L94.1,31.5z M87.3,35.2c-0.8,0-1.4-0.6-1.4-1.5c0-0.8,0.7-1.4,1.4-1.4s1.4,0.6,1.4,1.4S88.1,35.2,87.3,35.2z"/>
				</g>
			</g>
			<g>
				<g>
					<path class="st2" d="M63.4,98.6c-1,0-1.8,0.6-2.2,1.5h-4.3l-0.2,0.3l-8.1,8.3c-0.6-0.4-1.3-0.6-2-0.6c-2.1,0-3.9,1.7-3.9,3.9
						s1.7,3.9,3.9,3.9s3.9-1.7,3.9-3.9c0-0.8-0.3-1.6-0.8-2.3l7.9-8.1h3.6c0.3,1,1.2,1.7,2.2,1.7c1.3,0,2.3-1,2.3-2.3
						S64.6,98.6,63.4,98.6L63.4,98.6z M46.5,114.2c-1.2,0-2.3-1-2.3-2.3s1-2.3,2.3-2.3s2.3,1,2.3,2.3S47.8,114.2,46.5,114.2z"/>
					<path class="st2" d="M74.1,100c-1.3,0-2.4,1.1-2.4,2.4c0,1.2,0.8,2.1,1.9,2.4l0,5.3l-4.5,0c-0.3-0.7-0.9-1.2-1.7-1.2
						c-1,0-1.8,0.8-1.8,1.8s0.8,1.9,1.8,1.9c0.9,0,1.6-0.6,1.8-1.4l5.6,0v-0.6l0,0l0.1-5.9c1-0.3,1.8-1.2,1.8-2.3
						C76.5,101.1,75.4,100,74.1,100L74.1,100z M74.1,103.7c-0.7,0-1.3-0.6-1.3-1.3s0.6-1.3,1.3-1.3s1.3,0.6,1.3,1.3
						S74.8,103.7,74.1,103.7z"/>
					<path class="st2" d="M79,105.4c-1.3,0-2.4,1.1-2.4,2.4c0,1.2,0.8,2.1,1.9,2.4l0,5.3l-4.5,0c-0.3-0.7-0.9-1.2-1.7-1.2
						c-1,0-1.8,0.8-1.8,1.8s0.8,1.8,1.8,1.8c0.9,0,1.6-0.6,1.8-1.4l5.6,0v-0.6l0,0l0-5.9c1-0.3,1.8-1.2,1.8-2.3
						C81.5,106.5,80.4,105.4,79,105.4L79,105.4z M79,109.1c-0.7,0-1.3-0.6-1.3-1.3s0.6-1.3,1.3-1.3s1.3,0.6,1.3,1.3
						S79.7,109.1,79,109.1z"/>
					<path class="st2" d="M78.6,117.9c-1.1,0-2,0.8-2.3,1.8h-2.3c-0.3-0.6-0.9-1.1-1.7-1.1c-1,0-1.8,0.8-1.8,1.9s0.8,1.8,1.8,1.8
						s1.8-0.8,1.8-1.8h2.1c0.2,1.2,1.1,2.1,2.3,2.1c1.3,0,2.4-1.1,2.4-2.4S79.9,117.9,78.6,117.9z M78.6,121.6
						c-0.7,0-1.3-0.6-1.3-1.3s0.6-1.3,1.3-1.3s1.3,0.6,1.3,1.3S79.3,121.6,78.6,121.6z"/>
				</g>
				<path class="st2" d="M93.6,122.9c-0.9,0-1.6,0.6-1.8,1.4H85c-0.2-1.1-1.2-2-2.3-2s-2.1,0.8-2.3,2h-6.3c-0.2-0.8-0.9-1.4-1.8-1.4
					c-1,0-1.8,0.8-1.8,1.8s0.8,1.8,1.8,1.8c0.9,0,1.6-0.6,1.8-1.4h6.3c0.2,1.1,1.2,2,2.3,2s2.1-0.8,2.3-2h6.8
					c0.2,0.8,0.9,1.4,1.8,1.4c1,0,1.8-0.8,1.8-1.8S94.7,122.9,93.6,122.9z M82.7,126.1c-0.7,0-1.3-0.6-1.3-1.3s0.6-1.3,1.3-1.3
					s1.3,0.6,1.3,1.3S83.5,126.1,82.7,126.1z"/>
				<g>
					<path class="st2" d="M119,108.1c-0.7,0-1.4,0.2-2,0.6l-8.1-8.3l-0.2-0.3h-4.3c-0.3-0.9-1.2-1.5-2.2-1.5c-1.3,0-2.3,1-2.3,2.3
						s1,2.3,2.3,2.3c1,0,2-0.7,2.2-1.7h3.6l7.9,8.1c-0.5,0.7-0.8,1.5-0.8,2.3c0,2.1,1.7,3.9,3.9,3.9s3.9-1.7,3.9-3.9
						S121.1,108.1,119,108.1L119,108.1z M119,114.2c-1.2,0-2.3-1-2.3-2.3s1-2.3,2.3-2.3s2.2,1,2.2,2.3S120.2,114.2,119,114.2z"/>
					<path class="st2" d="M98.2,109c-0.8,0-1.4,0.5-1.7,1.2l-4.5,0l0-5.3c1.1-0.2,1.9-1.2,1.9-2.4c0-1.3-1.1-2.4-2.4-2.4
						s-2.4,1.1-2.4,2.4c0,1.1,0.8,2.1,1.8,2.3l0.1,5.9l0,0v0.6l5.6,0c0.2,0.8,0.9,1.4,1.8,1.4c1,0,1.8-0.8,1.8-1.9
						S99.2,109,98.2,109L98.2,109z M90.1,102.5c0-0.7,0.6-1.3,1.3-1.3s1.3,0.6,1.3,1.3s-0.6,1.3-1.3,1.3S90.1,103.2,90.1,102.5z"/>
					<path class="st2" d="M93.2,114.4c-0.8,0-1.4,0.5-1.7,1.2l-4.5,0l0-5.3c1.1-0.2,1.9-1.2,1.9-2.4c0-1.3-1.1-2.4-2.4-2.4
						s-2.4,1.1-2.4,2.4c0,1.1,0.8,2.1,1.8,2.3l0.1,5.9l0,0v0.6l5.6,0c0.2,0.8,0.9,1.4,1.8,1.4c1,0,1.8-0.8,1.8-1.8
						S94.3,114.4,93.2,114.4L93.2,114.4z M85.2,107.8c0-0.7,0.6-1.3,1.3-1.3s1.3,0.6,1.3,1.3s-0.6,1.3-1.3,1.3
						S85.2,108.5,85.2,107.8z"/>
					<path class="st2" d="M93.2,118.6c-0.7,0-1.4,0.4-1.7,1.1h-2.3c-0.3-1-1.2-1.8-2.3-1.8c-1.3,0-2.4,1.1-2.4,2.4s1.1,2.4,2.4,2.4
						c1.2,0,2.2-0.9,2.3-2.1h2.1c0,1,0.8,1.8,1.8,1.8s1.8-0.8,1.8-1.8S94.3,118.7,93.2,118.6L93.2,118.6z M86.9,121.6
						c-0.7,0-1.3-0.6-1.3-1.3s0.6-1.3,1.3-1.3s1.3,0.6,1.3,1.3S87.7,121.6,86.9,121.6z"/>
				</g>
			</g>
			<g>
				<polygon class="st3" points="105.9,82.8 116.8,82.8 116.8,77.4 116.8,76.2 105.9,76.2 105.9,75 105.9,71.7 118.3,71.7 
					118.3,65.1 97.1,65.1 97.1,74.7 97.1,76.6 97.1,91.2 105.9,91.2 				"/>
				<path class="st3" d="M143.3,78c-0.3-0.1-0.7-0.1-1-0.1l-5.6-12.8h-8.7L123.3,76l-0.8,1.8l-5.9,13.4h9l1.8-4.6h9.9l1.8,4.6h9.1
					l-4.7-10.8l-0.2-0.4c0.1,0,0.1,0,0.2,0c15.8,2.3,20.1,4.9,20.1,6.2s-4.2,3.8-19.7,6.1c-1.1,0.2-2.2,0.3-3.4,0.5
					c-7.4,1-15.9,1.7-25.2,2.2c-10.1,0.6-21.1,0.9-32.5,0.9s-22.4-0.3-32.5-0.9c-9.3-0.5-17.8-1.3-25.2-2.2c-1-0.1-2.1-0.3-3-0.4
					C6.3,90,2,87.4,2,86.1c0-1.2,3.8-3.6,17.5-5.8v10.8h8.6v-6.5l2-2.2l6.5,8.6h10.2l-9.7-12.9l-1.3-1.7l0.1-0.1l10.3-11.4h-9.6
					l-8.6,9.5v-9.5h-8.6v13.3C7.9,80.2,0.1,82.8,0.1,86.1c0,3.6,9,6.3,22,8.1c3.2,0.5,6.8,0.9,10.4,1.2c15.9,1.6,34.8,2.2,50.3,2.2
					s34.7-0.7,50.7-2.3c3.7-0.4,7.2-0.8,10.4-1.2c12.7-1.8,21.6-4.5,21.6-8.1S156.4,79.8,143.3,78L143.3,78z M129.8,80.3l0.7-1.8
					l0.7-1.8l1.1-2.9l1.2,3.1l0.8,2l0.6,1.5L129.8,80.3L129.8,80.3z"/>
				<path class="st3" d="M45.4,77.6c0,0.2,0,0.3,0,0.5c0,2,0.4,3.9,1.1,5.5c0.7,1.7,1.7,3.1,3,4.3c1.3,1.2,2.8,2.2,4.6,2.8
					c1.8,0.7,3.7,1,5.8,1c2.6,0,4.8-0.5,6.8-1.4c2-0.9,3.6-2.2,4.9-3.9l-5.6-5c-0.8,1-1.6,1.7-2.6,2.2c-0.9,0.5-2,0.8-3.2,0.8
					c-0.9,0-1.8-0.2-2.5-0.4s-1.4-0.7-1.9-1.3c-0.5-0.6-1-1.3-1.2-2.1c-0.3-0.8-0.5-1.7-0.5-2.7c0-0.3,0-0.7,0.1-1
					c0.1-0.6,0.2-1.2,0.4-1.7c0-0.1,0-0.1,0.1-0.2c0.3-0.7,0.7-1.3,1.2-1.9c0.5-0.6,1.2-1,1.9-1.3c0.8-0.3,1.6-0.5,2.5-0.5
					c1.2,0,2.2,0.3,3.2,0.8c0.9,0.5,1.8,1.3,2.6,2.3l5.6-5c-1.3-1.7-2.9-3-4.9-3.9c-2-0.9-4.3-1.3-6.8-1.3c-2.1,0-4,0.3-5.8,1
					c-1.8,0.7-3.3,1.6-4.6,2.8c-1.3,1.2-2.3,2.7-3,4.3c-0.4,1-0.7,2-0.9,3.1C45.5,76.3,45.4,77,45.4,77.6L45.4,77.6z"/>
				<path class="st3" d="M72.6,76.5c0,0.1,0.1,0.2,0.1,0.2c0.5,0.9,1.2,1.7,2.1,2.2c0.8,0.6,1.8,1,2.8,1.4s2.1,0.6,3.1,0.8
					c1,0.2,2,0.4,2.8,0.6c0.8,0.2,1.5,0.4,2.1,0.7c0.5,0.3,0.8,0.7,0.8,1.1c0,0.3-0.1,0.6-0.3,0.8c-0.2,0.2-0.6,0.4-1.1,0.5
					c-0.5,0.1-1.2,0.2-2,0.2c-1.4,0-2.9-0.2-4.5-0.7c-1.5-0.4-2.9-1-4.2-1.7l-2.8,6.4c1.3,0.8,3,1.4,5,1.9c2,0.5,4.2,0.8,6.3,0.8
					c2.7,0,5-0.4,6.8-1.2s3.1-1.9,4.1-3.2c0.9-1.3,1.4-2.8,1.4-4.4c0-1.4-0.3-2.5-0.8-3.4s-1.2-1.7-2.1-2.2
					c-0.4-0.3-0.9-0.6-1.4-0.8c-0.4-0.2-0.9-0.4-1.4-0.6c-1-0.3-2-0.6-3.1-0.8c-1-0.2-2-0.4-2.8-0.6l0,0c0,0,0,0,0,0
					c-0.9-0.2-1.6-0.4-2.1-0.7c-0.5-0.3-0.8-0.6-0.8-1.1c0-0.3,0.1-0.6,0.3-0.8c0.2-0.2,0.6-0.5,1.1-0.6c0.5-0.2,1.2-0.2,2-0.2
					c1.2,0,2.3,0.2,3.5,0.5c1.2,0.3,2.5,0.8,3.8,1.5l2.7-6.4c-1.4-0.8-2.9-1.3-4.6-1.7c-1.7-0.4-3.5-0.6-5.2-0.6
					c-2.7,0-4.9,0.4-6.7,1.2c-1.8,0.8-3.2,1.9-4.1,3.2c-0.9,1.3-1.4,2.8-1.4,4.4c0,0.5,0,0.9,0.1,1.4C72.1,75.4,72.3,76,72.6,76.5
					L72.6,76.5z"/>
			</g>
		</g>
	</g>
</g>
</svg>
