<?xml version="1.0" encoding="utf-8"?>
<!-- Generator: Adobe Illustrator 27.3.1, SVG Export Plug-In . SVG Version: 6.00 Build 0)  -->
<svg version="1.1" id="Layer_2_00000152223970927339574870000001731708569845720730_"
	 xmlns="http://www.w3.org/2000/svg" xmlns:xlink="http://www.w3.org/1999/xlink" x="0px" y="0px" viewBox="0 0 403.1 87.2"
	 style="enable-background:new 0 0 403.1 87.2;" xml:space="preserve">
<style type="text/css">
	.st0{fill:#FFFFFF;}
	.st1{fill:#EF802B;}
	.st2{fill:#325396;}
	.st3{fill:#F18028;}
	.st4{fill:#285992;}
</style>
<g id="Layer_1-2">
	<g>
		<ellipse class="st0" cx="48.3" cy="45.3" rx="47.4" ry="5.9"/>
		<g>
			<g>
				<polygon class="st1" points="122.5,24.3 115.7,24.3 109.6,31 109.6,24.3 103.4,24.3 103.4,42.9 109.6,42.9 109.6,38.3 111,36.7 
					115.6,42.9 122.9,42.9 115.1,32.5 				"/>
				<path class="st1" d="M134,28.9c-1.2-0.6-2.5-0.9-4-0.9c-1.6,0-3,0.3-4.2,1s-2.2,1.5-2.9,2.6c-0.7,1.1-1.1,2.4-1.1,3.9
					s0.4,2.7,1.1,3.9c0.7,1.1,1.8,2,3.1,2.7c1.3,0.7,2.9,1,4.6,1c1.4,0,2.7-0.2,3.7-0.6c1-0.4,1.9-1,2.6-1.7l-3.1-3.2
					c-0.5,0.3-0.9,0.6-1.4,0.8c-0.4,0.2-1,0.3-1.7,0.3s-1.2-0.1-1.7-0.3c-0.5-0.2-0.8-0.5-1.1-1c-0.1-0.1-0.1-0.2-0.2-0.4h10.1
					c0-0.2,0-0.5,0.1-0.7c0-0.3,0-0.5,0-0.7c0-1.6-0.4-3-1.1-4.1C136.2,30.3,135.2,29.5,134,28.9L134,28.9z M128.8,32.5
					c0.4-0.2,0.8-0.3,1.3-0.3s0.9,0.1,1.3,0.3s0.6,0.5,0.8,0.9c0.1,0.2,0.2,0.4,0.2,0.7h-4.7c0.1-0.2,0.1-0.5,0.2-0.7
					C128.1,33,128.4,32.7,128.8,32.5L128.8,32.5z"/>
				<path class="st1" d="M152.5,28.8c-0.9-0.5-1.9-0.7-3-0.7c-1.2,0-2.3,0.3-3.2,0.8c-0.4,0.2-0.8,0.5-1.1,0.9v-1.5h-5.7v14.5h6V36
					c0-0.7,0.1-1.3,0.3-1.7c0.2-0.4,0.5-0.7,0.8-0.9s0.7-0.3,1.1-0.3c0.6,0,1,0.2,1.3,0.6s0.5,1,0.5,1.9v7.2h6v-8.3
					c0-1.5-0.3-2.8-0.8-3.7C154.2,29.9,153.5,29.2,152.5,28.8L152.5,28.8z"/>
				<path class="st1" d="M167.8,28.3l-3.1,7.8l-3-7.8h-6.2l6.1,14.7c-0.1,0.1-0.2,0.2-0.3,0.3c-0.3,0.2-0.7,0.3-1.2,0.3
					c-0.4,0-0.7-0.1-1.1-0.2s-0.7-0.3-1-0.6l-2,4.1c0.5,0.4,1.1,0.7,2,0.9c0.8,0.2,1.6,0.4,2.4,0.4c1,0,2-0.2,2.8-0.5
					s1.6-0.8,2.3-1.6c0.7-0.7,1.3-1.8,1.8-3.1l6-14.8H167.8L167.8,28.3z"/>
				<path class="st1" d="M185.7,29.8c-1.4-1.1-3.3-1.7-5.8-1.7c-1.1,0-2.3,0.1-3.5,0.4s-2.2,0.7-3.1,1.2l1.9,4
					c0.5-0.3,1.1-0.6,1.7-0.8c0.7-0.2,1.3-0.3,2-0.3c1,0,1.7,0.2,2.1,0.6c0.3,0.3,0.5,0.7,0.6,1.1h-2.4c-1.5,0-2.8,0.2-3.7,0.5
					c-1,0.3-1.7,0.8-2.2,1.5c-0.5,0.7-0.7,1.5-0.7,2.4c0,0.8,0.2,1.6,0.6,2.3s1,1.2,1.8,1.6c0.8,0.4,1.8,0.6,3,0.6
					c1.3,0,2.3-0.3,3-0.8c0.5-0.3,0.9-0.8,1.1-1.4v1.9h5.6V35C187.8,32.6,187.1,30.9,185.7,29.8L185.7,29.8z M181,39.2
					c-0.3,0.2-0.7,0.3-1.1,0.3c-0.4,0-0.8-0.1-1.1-0.3c-0.3-0.2-0.4-0.5-0.4-0.8c0-0.4,0.1-0.7,0.4-0.9c0.3-0.2,0.8-0.3,1.4-0.3h1.5
					v1C181.6,38.6,181.4,39,181,39.2z"/>
				<path class="st1" d="M211.6,36c-0.6,0.7-1.1,1.2-1.8,1.6s-1.4,0.6-2.2,0.6c-0.6,0-1.2-0.1-1.8-0.3s-1-0.5-1.4-0.9
					c-0.4-0.4-0.7-0.9-0.9-1.5s-0.3-1.2-0.3-1.9s0.1-1.3,0.3-1.9c0.2-0.6,0.5-1.1,0.9-1.5c0.4-0.4,0.8-0.7,1.4-0.9
					c0.5-0.2,1.1-0.3,1.8-0.3c0.8,0,1.6,0.2,2.2,0.6s1.3,0.9,1.8,1.6l3.9-3.5c-0.9-1.2-2.1-2.1-3.5-2.8s-3-1-4.8-1
					c-1.5,0-2.9,0.2-4.1,0.7c-1.3,0.5-2.4,1.1-3.3,2s-1.6,1.9-2.2,3.1c-0.5,1.2-0.8,2.5-0.8,3.9s0.3,2.7,0.8,3.9s1.2,2.2,2.2,3.1
					c0.9,0.9,2,1.5,3.3,2s2.6,0.7,4.1,0.7c1.8,0,3.4-0.3,4.8-1c1.4-0.7,2.6-1.6,3.5-2.8C215.6,39.6,211.6,36,211.6,36z"/>
				<path class="st1" d="M224.2,36.1l-3-7.8H215l6.1,14.7c-0.1,0.1-0.2,0.2-0.3,0.3c-0.3,0.2-0.7,0.3-1.2,0.3
					c-0.4,0-0.7-0.1-1.1-0.2s-0.7-0.3-1-0.6l-2,4.1c0.5,0.4,1.1,0.7,2,0.9c0.8,0.2,1.6,0.4,2.4,0.4c1,0,2-0.2,2.8-0.5
					s1.6-0.8,2.3-1.6c0.7-0.7,1.3-1.8,1.8-3.1l6-14.8h-5.7L224.2,36.1L224.2,36.1z"/>
				<path class="st1" d="M246.6,29c-1.1-0.6-2.2-0.9-3.5-0.9s-2.3,0.3-3.1,0.8c-0.2,0.1-0.4,0.3-0.6,0.5v-6.2h-6v19.7h5.7v-1.2
					c0.2,0.3,0.5,0.5,0.8,0.7c0.8,0.5,1.9,0.8,3.2,0.8s2.4-0.3,3.5-0.9s1.9-1.5,2.6-2.6s1-2.5,1-4s-0.3-2.9-1-4
					C248.5,30.5,247.6,29.6,246.6,29L246.6,29z M243.7,37.2c-0.2,0.4-0.5,0.8-0.9,1c-0.4,0.2-0.8,0.3-1.2,0.3s-0.8-0.1-1.2-0.3
					s-0.6-0.5-0.9-1c-0.2-0.4-0.3-1-0.3-1.6s0.1-1.2,0.3-1.6c0.2-0.4,0.5-0.7,0.9-0.9c0.4-0.2,0.8-0.3,1.2-0.3s0.8,0.1,1.2,0.3
					s0.6,0.5,0.9,0.9c0.2,0.4,0.3,0.9,0.3,1.6S243.9,36.7,243.7,37.2z"/>
				<path class="st1" d="M262.9,28.9c-1.2-0.6-2.5-0.9-4-0.9c-1.6,0-3,0.3-4.2,1s-2.2,1.5-2.9,2.6c-0.7,1.1-1.1,2.4-1.1,3.9
					s0.4,2.7,1.1,3.9s1.8,2,3.1,2.7c1.3,0.7,2.9,1,4.6,1c1.5,0,2.7-0.2,3.7-0.6c1-0.4,1.9-1,2.6-1.7l-3.1-3.2
					c-0.5,0.3-0.9,0.6-1.4,0.8c-0.4,0.2-1,0.3-1.7,0.3s-1.2-0.1-1.7-0.3c-0.5-0.2-0.8-0.5-1.1-1c-0.1-0.1-0.1-0.2-0.2-0.4h10.1
					c0-0.2,0-0.5,0-0.7c0-0.3,0-0.5,0-0.7c0-1.6-0.4-3-1.1-4.1C265.1,30.3,264.1,29.5,262.9,28.9L262.9,28.9z M257.7,32.5
					c0.4-0.2,0.8-0.3,1.3-0.3s0.9,0.1,1.3,0.3s0.6,0.5,0.8,0.9c0.1,0.2,0.2,0.4,0.2,0.7h-4.7c0-0.2,0.1-0.5,0.2-0.7
					C257.1,33,257.4,32.7,257.7,32.5L257.7,32.5z"/>
				<path class="st1" d="M274.1,29.9v-1.6h-5.7v14.5h6v-6.5c0-1.2,0.3-2,0.9-2.4c0.6-0.5,1.3-0.7,2.2-0.7c0.2,0,0.4,0,0.6,0
					c0.2,0,0.4,0,0.7,0.1v-5.3c-1.4,0-2.5,0.3-3.5,0.9C274.8,29.2,274.4,29.5,274.1,29.9L274.1,29.9z"/>
				<path class="st1" d="M301.3,33c-0.6-0.4-1.3-0.7-2-1c-0.7-0.3-1.5-0.4-2.2-0.6c-0.7-0.1-1.4-0.3-2-0.4s-1.1-0.3-1.5-0.5
					c-0.4-0.2-0.6-0.4-0.6-0.8c0-0.2,0.1-0.4,0.2-0.6c0.1-0.2,0.4-0.3,0.8-0.4c0.4-0.1,0.8-0.2,1.4-0.2c0.8,0,1.6,0.1,2.5,0.3
					c0.9,0.2,1.8,0.6,2.7,1l1.9-4.5c-1-0.5-2.1-1-3.3-1.2c-1.2-0.3-2.5-0.4-3.7-0.4c-1.9,0-3.5,0.3-4.8,0.9s-2.2,1.3-2.9,2.3
					c-0.6,1-1,2-1,3.1c0,1,0.2,1.8,0.6,2.5c0.4,0.7,0.9,1.2,1.5,1.6s1.3,0.7,2,1c0.7,0.2,1.5,0.5,2.2,0.6c0.7,0.2,1.4,0.3,2,0.4
					c0.6,0.1,1.1,0.3,1.5,0.5c0.4,0.2,0.6,0.5,0.6,0.8c0,0.2-0.1,0.4-0.2,0.5s-0.4,0.3-0.8,0.3c-0.3,0.1-0.8,0.1-1.4,0.1
					c-1,0-2.1-0.2-3.2-0.5c-1.1-0.3-2.1-0.7-3-1.2l-2,4.6c0.9,0.6,2.1,1,3.6,1.4c1.5,0.3,3,0.5,4.5,0.5c1.9,0,3.5-0.3,4.8-0.9
					s2.2-1.3,2.9-2.3c0.6-1,1-2,1-3.1c0-1-0.2-1.8-0.6-2.4C302.4,33.9,301.9,33.4,301.3,33z"/>
				<path class="st1" d="M315.9,28.9c-1.2-0.6-2.5-0.9-4-0.9c-1.6,0-3,0.3-4.2,1s-2.2,1.5-3,2.6c-0.7,1.1-1.1,2.4-1.1,3.9
					s0.4,2.7,1.1,3.9s1.8,2,3.1,2.7c1.3,0.7,2.9,1,4.6,1c1.5,0,2.7-0.2,3.7-0.6c1-0.4,1.9-1,2.6-1.7l-3.1-3.2
					c-0.5,0.3-0.9,0.6-1.4,0.8c-0.4,0.2-1,0.3-1.7,0.3s-1.2-0.1-1.7-0.3c-0.5-0.2-0.8-0.5-1.1-1c-0.1-0.1-0.1-0.2-0.2-0.4h10.1
					c0-0.2,0-0.5,0-0.7c0-0.3,0-0.5,0-0.7c0-1.6-0.4-3-1.1-4.1C318.1,30.3,317.1,29.5,315.9,28.9L315.9,28.9z M310.7,32.5
					c0.4-0.2,0.8-0.3,1.3-0.3s0.9,0.1,1.3,0.3s0.6,0.5,0.8,0.9c0.1,0.2,0.2,0.4,0.2,0.7h-4.7c0-0.2,0.1-0.5,0.2-0.7
					C310.1,33,310.4,32.7,310.7,32.5L310.7,32.5z"/>
				<path class="st1" d="M327.9,33.1c0.4-0.2,0.8-0.3,1.2-0.3c0.5,0,1,0.2,1.4,0.5c0.4,0.3,0.8,0.8,1.1,1.5l4.6-2.3
					c-0.5-1.3-1.3-2.4-2.6-3.2s-2.8-1.1-4.5-1.1c-1.7,0-3.1,0.3-4.4,1s-2.3,1.5-3,2.6c-0.7,1.1-1.1,2.4-1.1,3.9s0.4,2.8,1.1,3.9
					s1.8,2,3,2.7s2.8,1,4.4,1c1.8,0,3.3-0.4,4.5-1.1s2.1-1.8,2.6-3.2l-4.6-2.3c-0.3,0.7-0.7,1.2-1.1,1.5s-0.9,0.5-1.4,0.5
					c-0.4,0-0.9-0.1-1.2-0.3s-0.7-0.5-0.9-1c-0.2-0.4-0.3-1-0.3-1.6s0.1-1.2,0.3-1.6C327.2,33.6,327.5,33.3,327.9,33.1z"/>
				<path class="st1" d="M347.1,35.2c0,0.7-0.1,1.3-0.3,1.7s-0.5,0.7-0.8,0.9s-0.6,0.3-1,0.3c-0.6,0-1-0.2-1.4-0.6s-0.5-1.1-0.5-2.2
					v-7h-6v8c0,1.6,0.3,2.9,0.8,3.9s1.3,1.7,2.2,2.2s2,0.7,3.1,0.7s2.1-0.3,3.1-0.8c0.4-0.2,0.7-0.5,1-0.8v1.4h5.7V28.3h-6
					L347.1,35.2L347.1,35.2z"/>
				<path class="st1" d="M361,29.9v-1.6h-5.7v14.5h6v-6.5c0-1.2,0.3-2,0.9-2.4c0.6-0.5,1.3-0.7,2.2-0.7c0.2,0,0.4,0,0.6,0
					c0.2,0,0.4,0,0.7,0.1v-5.3c-1.4,0-2.5,0.3-3.5,0.9C361.8,29.2,361.4,29.5,361,29.9L361,29.9z"/>
				<rect x="367" y="28.3" class="st1" width="6" height="14.5"/>
				<path class="st1" d="M370,21.1c-1.1,0-2,0.3-2.6,0.9c-0.6,0.6-1,1.3-1,2.2s0.3,1.6,1,2.2c0.6,0.6,1.5,0.9,2.6,0.9s2-0.3,2.6-0.9
					c0.6-0.6,1-1.4,1-2.3c0-0.9-0.3-1.6-1-2.1C371.9,21.4,371.1,21.1,370,21.1L370,21.1z"/>
				<path class="st1" d="M384.4,38.2c-0.4,0.3-0.8,0.4-1.4,0.4c-0.4,0-0.6-0.1-0.9-0.4c-0.2-0.2-0.4-0.6-0.4-1v-3.7h3v-4.4h-3v-4.1
					h-6v4.1h-2v4.4h2v3.7c0,2,0.6,3.5,1.7,4.4c1.1,1,2.7,1.5,4.7,1.5c0.7,0,1.4-0.1,2-0.2c0.6-0.1,1.2-0.3,1.7-0.6L384.4,38.2
					L384.4,38.2z"/>
				<path class="st1" d="M397.1,28.3l-3,7.8l-3-7.8h-6.2L391,43c-0.1,0.1-0.2,0.2-0.3,0.3c-0.3,0.2-0.7,0.3-1.2,0.3
					c-0.4,0-0.7-0.1-1.1-0.2s-0.7-0.3-1-0.6l-2,4.1c0.5,0.4,1.1,0.7,2,0.9c0.8,0.2,1.6,0.4,2.4,0.4c1,0,2-0.2,2.8-0.5
					s1.6-0.8,2.3-1.6c0.7-0.7,1.3-1.8,1.8-3.1l6-14.8H397.1z"/>
			</g>
			<g>
				<path class="st2" d="M134.8,57c-0.9-0.7-2.1-1.1-3.7-1.1c-0.8,0-1.6,0.1-2.4,0.3c-0.8,0.2-1.5,0.5-2,0.8l1.2,2.4
					c0.3-0.3,0.7-0.5,1.2-0.6s1-0.2,1.4-0.2c0.7,0,1.3,0.2,1.6,0.5c0.3,0.3,0.5,0.7,0.5,1.1h-2c-1,0-1.9,0.1-2.5,0.4
					c-0.6,0.2-1.1,0.6-1.4,1s-0.5,1-0.5,1.6c0,0.6,0.1,1.1,0.4,1.5s0.7,0.8,1.2,1.1c0.5,0.3,1.2,0.4,2,0.4c0.9,0,1.6-0.2,2.1-0.5
					c0.4-0.2,0.6-0.6,0.8-0.9V66h3.2v-5.5C136.1,58.9,135.7,57.8,134.8,57L134.8,57z M132,63.7c-0.3,0.2-0.7,0.3-1,0.3
					c-0.4,0-0.7-0.1-0.9-0.3s-0.4-0.4-0.4-0.7s0.1-0.5,0.3-0.7s0.6-0.3,1.2-0.3h1.5v0.9C132.5,63.2,132.3,63.5,132,63.7L132,63.7z"
					/>
				<path class="st2" d="M146.8,56.4c-0.6-0.3-1.3-0.5-2.1-0.5c-0.8,0-1.6,0.2-2.2,0.5c-0.3,0.2-0.6,0.4-0.9,0.7v-1.1h-3.3V66h3.5
					v-4.8c0-0.5,0.1-1,0.3-1.3s0.4-0.6,0.7-0.8c0.3-0.2,0.6-0.2,1-0.2c0.5,0,0.9,0.2,1.2,0.5s0.4,0.8,0.4,1.5V66h3.5v-5.7
					c0-1-0.2-1.9-0.5-2.5C147.9,57.2,147.4,56.7,146.8,56.4L146.8,56.4z"/>
				<path class="st2" d="M158.1,57c-0.2-0.2-0.4-0.3-0.6-0.5c-0.6-0.4-1.3-0.5-2.2-0.5c-0.9,0-1.7,0.2-2.5,0.6s-1.3,1-1.8,1.8
					c-0.4,0.8-0.7,1.7-0.7,2.7s0.2,2,0.7,2.7s1,1.3,1.8,1.8c0.7,0.4,1.6,0.6,2.5,0.6s1.6-0.2,2.2-0.6c0.3-0.2,0.5-0.4,0.7-0.6v1h3.3
					V52.4h-3.5V57L158.1,57z M157.8,62.3c-0.2,0.4-0.4,0.6-0.7,0.8c-0.3,0.2-0.7,0.3-1.1,0.3s-0.8-0.1-1.1-0.3
					c-0.3-0.2-0.6-0.5-0.7-0.8c-0.2-0.4-0.3-0.8-0.3-1.3s0.1-0.9,0.3-1.3c0.2-0.3,0.4-0.6,0.7-0.8c0.3-0.2,0.7-0.3,1.1-0.3
					s0.7,0.1,1.1,0.3s0.6,0.5,0.7,0.8c0.2,0.3,0.3,0.8,0.3,1.3S158,62,157.8,62.3z"/>
				<polygon class="st2" points="169.1,66 172.7,66 172.7,61.6 178.4,61.6 178.4,58.8 172.7,58.8 172.7,56 179.1,56 179.1,53.2 
					169.1,53.2 				"/>
				<path class="st2" d="M188.2,56.6c-0.9-0.4-1.8-0.7-2.9-0.7s-2.1,0.2-2.9,0.7s-1.5,1-2,1.8s-0.7,1.7-0.7,2.7s0.2,1.9,0.7,2.7
					c0.5,0.8,1.1,1.4,2,1.8s1.8,0.7,2.9,0.7s2.1-0.2,2.9-0.7c0.9-0.4,1.5-1,2-1.8c0.5-0.8,0.7-1.7,0.7-2.7s-0.2-1.9-0.7-2.7
					C189.7,57.6,189.1,57,188.2,56.6z M187.2,62.3c-0.2,0.4-0.4,0.6-0.7,0.8c-0.3,0.2-0.7,0.3-1.1,0.3s-0.7-0.1-1.1-0.3
					s-0.6-0.5-0.8-0.8s-0.3-0.8-0.3-1.3s0.1-0.9,0.3-1.3c0.2-0.3,0.4-0.6,0.8-0.8s0.7-0.3,1.1-0.3s0.8,0.1,1.1,0.3
					c0.3,0.2,0.6,0.5,0.7,0.8c0.2,0.3,0.3,0.8,0.3,1.3S187.3,62,187.2,62.3z"/>
				<path class="st2" d="M195.8,57.3v-1.2h-3.3V66h3.5v-4.5c0-0.9,0.2-1.5,0.7-1.9c0.4-0.4,1-0.6,1.7-0.6c0.1,0,0.3,0,0.4,0
					c0.1,0,0.2,0,0.4,0v-3.1c-0.9,0-1.7,0.2-2.4,0.6C196.3,56.7,196,57,195.8,57.3L195.8,57.3z"/>
				<path class="st2" d="M207.9,56.5c-0.8-0.4-1.7-0.6-2.7-0.6c-1,0-2,0.2-2.8,0.7s-1.5,1-1.9,1.8s-0.7,1.7-0.7,2.6s0.2,1.9,0.7,2.6
					c0.5,0.8,1.2,1.4,2,1.8s1.9,0.7,3.1,0.7c0.9,0,1.8-0.1,2.5-0.4s1.3-0.7,1.8-1.2l-1.8-1.9c-0.3,0.3-0.7,0.5-1,0.7
					c-0.4,0.1-0.8,0.2-1.2,0.2c-0.5,0-1-0.1-1.4-0.3s-0.7-0.5-0.9-0.8c-0.1-0.2-0.1-0.3-0.2-0.5h7.2c0-0.1,0-0.3,0-0.4s0-0.3,0-0.4
					c0-1.1-0.2-2-0.7-2.8C209.3,57.5,208.7,56.9,207.9,56.5L207.9,56.5z M204.1,58.7c0.3-0.2,0.7-0.3,1.1-0.3s0.8,0.1,1.1,0.3
					s0.6,0.4,0.7,0.8c0.1,0.2,0.2,0.4,0.2,0.7h-4c0-0.2,0.1-0.5,0.2-0.7C203.6,59.1,203.8,58.9,204.1,58.7L204.1,58.7z"/>
				<path class="st2" d="M220.6,56.4c-0.6-0.3-1.3-0.5-2.1-0.5c-0.8,0-1.6,0.2-2.2,0.5c-0.3,0.2-0.6,0.4-0.9,0.7v-1.1H212V66h3.5
					v-4.8c0-0.5,0.1-1,0.3-1.3s0.4-0.6,0.7-0.8c0.3-0.2,0.6-0.2,1-0.2c0.5,0,0.9,0.2,1.2,0.5s0.4,0.8,0.4,1.5V66h3.5v-5.7
					c0-1-0.2-1.9-0.5-2.5C221.7,57.2,221.2,56.7,220.6,56.4L220.6,56.4z"/>
				<path class="st2" d="M232,60.7c-0.4-0.2-0.7-0.4-1.1-0.5s-0.8-0.2-1.2-0.2s-0.8-0.1-1.1-0.2c-0.4-0.1-0.6-0.1-0.8-0.2
					c-0.2-0.1-0.3-0.2-0.3-0.5s0.1-0.4,0.4-0.5s0.6-0.2,1.2-0.2c0.4,0,0.9,0,1.4,0.2c0.5,0.1,1,0.3,1.5,0.6l1-2.4
					c-0.5-0.3-1.1-0.5-1.8-0.6s-1.4-0.2-2.1-0.2c-1,0-1.9,0.1-2.6,0.4s-1.3,0.7-1.6,1.2s-0.6,1.1-0.6,1.7c0,0.6,0.1,1,0.3,1.4
					c0.2,0.4,0.5,0.7,0.8,0.9s0.7,0.4,1.1,0.5s0.8,0.2,1.2,0.2s0.8,0.1,1.1,0.2c0.4,0,0.6,0.1,0.8,0.2c0.2,0.1,0.3,0.2,0.3,0.4
					c0,0.2-0.1,0.4-0.3,0.5c-0.2,0.1-0.6,0.2-1.2,0.2s-1.2-0.1-1.8-0.2s-1.2-0.4-1.6-0.7l-1,2.4c0.5,0.3,1.1,0.5,1.9,0.7
					c0.8,0.2,1.6,0.3,2.5,0.3c1.1,0,2-0.2,2.7-0.4s1.3-0.7,1.6-1.2s0.6-1,0.6-1.6c0-0.6-0.1-1-0.3-1.4S232.3,60.9,232,60.7L232,60.7
					z"/>
				<path class="st2" d="M236.3,51.3c-0.6,0-1.1,0.2-1.5,0.5s-0.6,0.8-0.6,1.3s0.2,1,0.6,1.3c0.4,0.3,0.9,0.5,1.5,0.5
					s1.2-0.2,1.5-0.5c0.4-0.4,0.6-0.8,0.6-1.4s-0.2-1-0.6-1.3C237.5,51.5,236.9,51.3,236.3,51.3L236.3,51.3z"/>
				<rect x="234.6" y="56.1" class="st2" width="3.5" height="9.9"/>
				<path class="st2" d="M244.2,59c0.3-0.2,0.7-0.3,1.1-0.3s0.8,0.1,1.1,0.3s0.6,0.5,0.9,1l2.7-1.4c-0.3-0.9-0.9-1.5-1.7-2
					c-0.8-0.5-1.8-0.7-2.9-0.7s-2.1,0.2-2.9,0.7s-1.5,1-2,1.8s-0.7,1.7-0.7,2.7s0.2,1.9,0.7,2.7c0.5,0.8,1.2,1.4,2,1.8
					s1.8,0.7,2.9,0.7s2.1-0.2,2.9-0.7c0.8-0.5,1.4-1.1,1.7-2l-2.7-1.4c-0.2,0.5-0.5,0.8-0.9,1s-0.7,0.3-1.1,0.3s-0.8-0.1-1.1-0.3
					s-0.6-0.5-0.8-0.8s-0.3-0.8-0.3-1.3s0.1-0.9,0.3-1.3C243.6,59.4,243.8,59.2,244.2,59L244.2,59z"/>
				<path class="st2" d="M258.5,60.7c-0.4-0.2-0.7-0.4-1.1-0.5c-0.4-0.1-0.8-0.2-1.2-0.2s-0.8-0.1-1.1-0.2c-0.4-0.1-0.6-0.1-0.8-0.2
					c-0.2-0.1-0.3-0.2-0.3-0.5s0.1-0.4,0.4-0.5s0.6-0.2,1.2-0.2c0.4,0,0.9,0,1.4,0.2c0.5,0.1,1,0.3,1.5,0.6l1-2.4
					c-0.5-0.3-1.1-0.5-1.8-0.6s-1.4-0.2-2.1-0.2c-1,0-1.9,0.1-2.6,0.4s-1.3,0.7-1.6,1.2s-0.6,1.1-0.6,1.7c0,0.6,0.1,1,0.3,1.4
					c0.2,0.4,0.5,0.7,0.8,0.9s0.7,0.4,1.1,0.5s0.8,0.2,1.2,0.2s0.8,0.1,1.1,0.2c0.4,0,0.6,0.1,0.8,0.2s0.3,0.2,0.3,0.4
					c0,0.2-0.1,0.4-0.3,0.5c-0.2,0.1-0.6,0.2-1.2,0.2s-1.2-0.1-1.8-0.2s-1.2-0.4-1.6-0.7l-1,2.4c0.5,0.3,1.1,0.5,1.9,0.7
					c0.8,0.2,1.6,0.3,2.5,0.3c1.1,0,2-0.2,2.7-0.4s1.3-0.7,1.6-1.2s0.6-1,0.6-1.6c0-0.6-0.1-1-0.3-1.4S258.9,60.9,258.5,60.7
					L258.5,60.7z"/>
				<path class="st2" d="M270.6,53.2L265,66h3.7l1-2.5h5.4l1,2.5h3.8l-5.7-12.8L270.6,53.2L270.6,53.2z M270.7,60.8l1.6-4.1l1.6,4.1
					H270.7L270.7,60.8z"/>
				<path class="st2" d="M287.9,60.7c-0.4-0.2-0.7-0.4-1.1-0.5c-0.4-0.1-0.8-0.2-1.2-0.2s-0.8-0.1-1.1-0.2c-0.4-0.1-0.6-0.1-0.8-0.2
					c-0.2-0.1-0.3-0.2-0.3-0.5s0.1-0.4,0.4-0.5s0.6-0.2,1.2-0.2c0.4,0,0.9,0,1.4,0.2c0.5,0.1,1,0.3,1.5,0.6l1-2.4
					c-0.5-0.3-1.1-0.5-1.8-0.6s-1.4-0.2-2.1-0.2c-1,0-1.9,0.1-2.6,0.4s-1.3,0.7-1.6,1.2s-0.6,1.1-0.6,1.7c0,0.6,0.1,1,0.3,1.4
					s0.5,0.7,0.8,0.9c0.4,0.2,0.7,0.4,1.1,0.5s0.8,0.2,1.2,0.2s0.8,0.1,1.1,0.2c0.4,0,0.6,0.1,0.8,0.2s0.3,0.2,0.3,0.4
					c0,0.2-0.1,0.4-0.3,0.5c-0.2,0.1-0.6,0.2-1.2,0.2s-1.2-0.1-1.8-0.2s-1.2-0.4-1.6-0.7l-1,2.4c0.5,0.3,1.1,0.5,1.9,0.7
					s1.6,0.3,2.5,0.3c1.1,0,2-0.2,2.7-0.4s1.3-0.7,1.6-1.2s0.6-1,0.6-1.6c0-0.6-0.1-1-0.3-1.4S288.2,60.9,287.9,60.7L287.9,60.7z"/>
				<path class="st2" d="M297.8,60.7c-0.4-0.2-0.7-0.4-1.1-0.5c-0.4-0.1-0.8-0.2-1.2-0.2s-0.8-0.1-1.1-0.2c-0.4-0.1-0.6-0.1-0.8-0.2
					c-0.2-0.1-0.3-0.2-0.3-0.5s0.1-0.4,0.4-0.5s0.6-0.2,1.2-0.2c0.4,0,0.9,0,1.4,0.2c0.5,0.1,1,0.3,1.5,0.6l1-2.4
					c-0.5-0.3-1.1-0.5-1.8-0.6s-1.4-0.2-2.1-0.2c-1,0-1.9,0.1-2.6,0.4s-1.3,0.7-1.6,1.2s-0.6,1.1-0.6,1.7c0,0.6,0.1,1,0.3,1.4
					s0.5,0.7,0.8,0.9c0.4,0.2,0.7,0.4,1.1,0.5s0.8,0.2,1.2,0.2s0.8,0.1,1.1,0.2c0.4,0,0.6,0.1,0.8,0.2s0.3,0.2,0.3,0.4
					c0,0.2-0.1,0.4-0.3,0.5c-0.2,0.1-0.6,0.2-1.2,0.2s-1.2-0.1-1.8-0.2s-1.2-0.4-1.6-0.7l-1,2.4c0.5,0.3,1.1,0.5,1.9,0.7
					s1.6,0.3,2.5,0.3c1.1,0,2-0.2,2.7-0.4s1.3-0.7,1.6-1.2s0.6-1,0.6-1.6c0-0.6-0.1-1-0.3-1.4S298.1,60.9,297.8,60.7L297.8,60.7z"/>
				<path class="st2" d="M308.2,56.6c-0.9-0.4-1.8-0.7-2.9-0.7s-2,0.2-2.9,0.7s-1.5,1-2,1.8s-0.7,1.7-0.7,2.7s0.2,1.9,0.7,2.7
					c0.5,0.8,1.1,1.4,2,1.8s1.8,0.7,2.9,0.7s2-0.2,2.9-0.7s1.5-1,2-1.8c0.5-0.8,0.7-1.7,0.7-2.7s-0.2-1.9-0.7-2.7
					C309.7,57.6,309.1,57,308.2,56.6z M307.1,62.3c-0.2,0.4-0.4,0.6-0.7,0.8s-0.7,0.3-1.1,0.3s-0.7-0.1-1-0.3s-0.6-0.5-0.8-0.8
					s-0.3-0.8-0.3-1.3s0.1-0.9,0.3-1.3c0.2-0.3,0.4-0.6,0.8-0.8s0.7-0.3,1-0.3s0.8,0.1,1.1,0.3s0.6,0.5,0.7,0.8
					c0.2,0.3,0.3,0.8,0.3,1.3S307.3,62,307.1,62.3z"/>
				<path class="st2" d="M316.4,59c0.3-0.2,0.7-0.3,1.1-0.3s0.8,0.1,1.1,0.3s0.6,0.5,0.9,1l2.7-1.4c-0.3-0.9-0.9-1.5-1.7-2
					c-0.8-0.5-1.8-0.7-2.9-0.7s-2.1,0.2-2.9,0.7s-1.5,1-2,1.8s-0.7,1.7-0.7,2.7s0.2,1.9,0.7,2.7c0.5,0.8,1.2,1.4,2,1.8
					s1.8,0.7,2.9,0.7s2.1-0.2,2.9-0.7c0.8-0.5,1.4-1.1,1.7-2l-2.7-1.4c-0.2,0.5-0.5,0.8-0.9,1s-0.7,0.3-1.1,0.3s-0.8-0.1-1.1-0.3
					s-0.6-0.5-0.8-0.8s-0.3-0.8-0.3-1.3s0.1-0.9,0.3-1.3C315.8,59.4,316.1,59.2,316.4,59L316.4,59z"/>
				<path class="st2" d="M325.1,51.3c-0.6,0-1.1,0.2-1.5,0.5c-0.4,0.3-0.6,0.8-0.6,1.3s0.2,1,0.6,1.3c0.4,0.3,0.9,0.5,1.5,0.5
					s1.2-0.2,1.5-0.5s0.6-0.8,0.6-1.4s-0.2-1-0.6-1.3C326.2,51.5,325.7,51.3,325.1,51.3L325.1,51.3z"/>
				<rect x="323.4" y="56.1" class="st2" width="3.5" height="9.9"/>
				<path class="st2" d="M337,57c-0.9-0.7-2.1-1.1-3.7-1.1c-0.8,0-1.6,0.1-2.4,0.3s-1.5,0.5-2,0.8l1.2,2.4c0.3-0.3,0.8-0.5,1.2-0.6
					s1-0.2,1.4-0.2c0.7,0,1.3,0.2,1.6,0.5c0.3,0.3,0.5,0.7,0.5,1.1h-2c-1,0-1.9,0.1-2.5,0.4s-1.1,0.6-1.4,1s-0.5,1-0.5,1.6
					c0,0.6,0.1,1.1,0.4,1.5s0.7,0.8,1.2,1.1s1.2,0.4,2,0.4c0.9,0,1.6-0.2,2.1-0.5c0.4-0.2,0.6-0.6,0.8-0.9V66h3.2v-5.5
					C338.3,58.9,337.8,57.8,337,57L337,57z M334.1,63.7c-0.3,0.2-0.7,0.3-1,0.3c-0.4,0-0.7-0.1-1-0.3s-0.4-0.4-0.4-0.7
					s0.1-0.5,0.3-0.7s0.6-0.3,1.2-0.3h1.5v0.9C334.7,63.2,334.5,63.5,334.1,63.7L334.1,63.7z"/>
				<path class="st2" d="M345.3,63.5c-0.3,0-0.5-0.1-0.8-0.3s-0.3-0.5-0.3-0.8v-3.3h2.3v-2.6h-2.3v-2.6h-3.5v2.6h-1.4v2.6h1.4v3.3
					c0,1.3,0.4,2.2,1.1,2.8s1.7,0.9,3,0.9c0.5,0,0.9-0.1,1.3-0.1c0.4-0.1,0.8-0.2,1.1-0.4l-0.9-2.4
					C346.1,63.4,345.7,63.5,345.3,63.5L345.3,63.5z"/>
				<path class="st2" d="M350.2,51.3c-0.6,0-1.1,0.2-1.5,0.5c-0.4,0.3-0.6,0.8-0.6,1.3s0.2,1,0.6,1.3c0.4,0.3,0.9,0.5,1.5,0.5
					s1.2-0.2,1.5-0.5s0.6-0.8,0.6-1.4s-0.2-1-0.6-1.3C351.4,51.5,350.9,51.3,350.2,51.3L350.2,51.3z"/>
				<rect x="348.5" y="56.1" class="st2" width="3.5" height="9.9"/>
				<path class="st2" d="M362,56.6c-0.9-0.4-1.8-0.7-2.9-0.7s-2,0.2-2.9,0.7s-1.5,1-2,1.8s-0.7,1.7-0.7,2.7s0.2,1.9,0.7,2.7
					c0.5,0.8,1.1,1.4,2,1.8s1.8,0.7,2.9,0.7s2-0.2,2.9-0.7s1.5-1,2-1.8c0.5-0.8,0.7-1.7,0.7-2.7s-0.2-1.9-0.7-2.7
					C363.5,57.6,362.9,57,362,56.6z M360.9,62.3c-0.2,0.4-0.4,0.6-0.7,0.8s-0.7,0.3-1.1,0.3s-0.7-0.1-1-0.3s-0.6-0.5-0.8-0.8
					S357,61.5,357,61s0.1-0.9,0.3-1.3c0.2-0.3,0.4-0.6,0.8-0.8s0.7-0.3,1-0.3s0.8,0.1,1.1,0.3s0.6,0.5,0.7,0.8
					c0.2,0.3,0.3,0.8,0.3,1.3S361.1,62,360.9,62.3z"/>
				<path class="st2" d="M376.2,57.8c-0.4-0.7-0.9-1.1-1.5-1.4s-1.3-0.5-2.1-0.5c-0.8,0-1.6,0.2-2.2,0.5c-0.3,0.2-0.6,0.4-0.9,0.7
					v-1.1h-3.3V66h3.5v-4.8c0-0.5,0.1-1,0.3-1.3s0.4-0.6,0.7-0.8c0.3-0.2,0.6-0.2,1-0.2c0.5,0,0.9,0.2,1.2,0.5s0.4,0.8,0.4,1.5V66
					h3.5v-5.7C376.8,59.3,376.6,58.5,376.2,57.8L376.2,57.8z"/>
			</g>
		</g>
		<g>
			<path class="st0" d="M83.9,49.1c0,0.4,0,0.8,0,1.1c0,0.6-0.1,1.1-0.2,1.7c0,0.1,0,0.3-0.1,0.4c0,0,0,0,0,0c0,0,0,0,0,0
				c-1.3,8.9-8.4,21-35.3,33.9c0,0-19-8.3-29.1-20.1c0,0,0-0.1-0.1-0.1c-3.2-4-5.6-8.4-6.1-13.1c0,0,0,0,0-0.1c0-0.3,0-0.7,0-1V6.4
				c0-0.1,0-0.2,0.1-0.2c8.7-2.3,20.5-4.5,34.5-4.5c14.7-0.1,26.9,2.2,36,4.5c0.1,0.2,0.1,0.4,0.1,0.6c-0.3,6-0.6,14.8-0.4,25.4
				c0,1.5,0.1,3,0.1,4.5c0,1.6,0.1,3,0.1,4.2c0,0.4,0,0.8,0,1.1c0,0.1,0,0.2,0,0.2c0.1,2.9,0.2,4.8,0.3,6.3
				C83.9,48.7,83.9,48.9,83.9,49.1L83.9,49.1z"/>
			<g>
				<g>
					<path class="st3" d="M77.8,50.7c0,0.1,0,0.2,0,0.3c-1.7,16.5-29.3,29.5-29.3,29.5S20.8,67.4,19.1,51c0-0.1,0-0.2,0-0.3h10.4
						c5.9,0.3,12.3,0.5,18.9,0.5s13-0.2,18.9-0.5L77.8,50.7L77.8,50.7z"/>
					<path class="st3" d="M77.9,10.6v21.6H19V10.6c0-1.4,1-2.5,2.3-2.8C28.4,6.5,37,5.4,46.6,5.3c11.2-0.1,21,1,28.9,2.6
						C76.9,8.1,77.9,9.3,77.9,10.6z"/>
					<path class="st2" d="M83.7,7.3v24.9h-2.9V7.3c0-0.7-0.5-1.3-1.2-1.4c-11-2.1-22.2-3-33.3-2.9c-9.8,0.1-19.6,1.1-29.2,2.9
						c-0.7,0.1-1.2,0.7-1.2,1.5v24.9H13V7.3c0-0.3,0-0.6,0.1-0.9c0-0.1,0-0.2,0.1-0.2c0.4-1.6,1.8-2.9,3.5-3.2
						c9.7-1.8,19.7-2.8,29.7-3C57.6-0.1,69,0.9,80.2,3c1.7,0.3,3,1.6,3.4,3.2c0.1,0.2,0.1,0.4,0.1,0.6C83.8,6.9,83.8,7.1,83.7,7.3
						L83.7,7.3z"/>
					<path class="st2" d="M83.7,50.7v0.1c0,0.5,0,1-0.1,1.5c0,0,0,0,0,0c0,0,0,0,0,0C82,71.6,50.4,86.3,49,86.9l-0.6,0.3l-0.6-0.3
						c-1-0.5-18.7-8.7-28.4-20.8c0,0,0-0.1-0.1-0.1c-3.2-4-5.6-8.4-6.1-13.1c0,0,0,0,0-0.1C13,52.2,13,51.5,13,50.8v-0.1h2.9v0.1
						c0,16.7,27.9,31,32.4,33.2c4.5-2.2,32.4-16.5,32.4-33.2v-0.1L83.7,50.7L83.7,50.7z"/>
				</g>
				<g>
					<g>
						<path class="st2" d="M36.2,25.8c-0.7,0-1.2,0.4-1.4,1.1h-2.2l-5-5.1c0.3-0.4,0.5-0.9,0.5-1.4c0-1.3-1.1-2.4-2.4-2.4
							s-2.4,1.1-2.4,2.4s1.1,2.4,2.4,2.4c0.5,0,0.9-0.1,1.3-0.4l5.1,5.2l0.1,0.2h2.7c0.2,0.6,0.7,0.9,1.3,0.9c0.8,0,1.5-0.6,1.5-1.5
							S37,25.8,36.2,25.8L36.2,25.8z M25.7,21.8c-0.8,0-1.4-0.6-1.4-1.4s0.6-1.4,1.4-1.4s1.4,0.6,1.4,1.4S26.4,21.8,25.7,21.8z"/>
						<path class="st2" d="M43.3,24.8l0-3.7l0,0v-0.4l-3.5,0c-0.1-0.5-0.6-0.9-1.1-0.9c-0.6,0-1.2,0.5-1.2,1.2s0.5,1.2,1.2,1.2
							c0.5,0,0.9-0.3,1.1-0.7h2.8l0,3.3c-0.7,0.1-1.2,0.8-1.2,1.5c0,0.8,0.7,1.5,1.5,1.5s1.5-0.7,1.5-1.5C44.5,25.6,44,25,43.3,24.8
							L43.3,24.8z M42.9,27.1c-0.4,0-0.8-0.4-0.8-0.8s0.4-0.8,0.8-0.8s0.8,0.4,0.8,0.8S43.4,27.1,42.9,27.1z"/>
						<path class="st2" d="M46.4,21.5l0-3.7l0,0v-0.4l-3.5,0c-0.1-0.5-0.6-0.9-1.1-0.9c-0.6,0-1.2,0.5-1.2,1.2s0.5,1.2,1.2,1.2
							c0.5,0,0.9-0.3,1.1-0.7h2.8l0,3.3c-0.7,0.1-1.2,0.8-1.2,1.5c0,0.8,0.7,1.5,1.5,1.5s1.5-0.7,1.5-1.5
							C47.6,22.2,47.1,21.6,46.4,21.5L46.4,21.5z M46,23.7c-0.4,0-0.8-0.4-0.8-0.8s0.4-0.8,0.8-0.8s0.8,0.4,0.8,0.8
							S46.5,23.7,46,23.7z"/>
						<path class="st2" d="M45.7,13.6c-0.8,0-1.4,0.6-1.5,1.3H43c0-0.6-0.5-1.1-1.2-1.1s-1.2,0.5-1.2,1.2s0.5,1.2,1.2,1.2
							c0.5,0,0.9-0.3,1-0.7h1.5c0.2,0.6,0.7,1.1,1.4,1.1c0.8,0,1.5-0.7,1.5-1.5S46.6,13.6,45.7,13.6L45.7,13.6z M45.7,16
							c-0.5,0-0.8-0.4-0.8-0.8s0.4-0.8,0.8-0.8s0.8,0.4,0.8,0.8S46.2,16,45.7,16z"/>
					</g>
					<path class="st2" d="M55.2,11.2c-0.5,0-1,0.4-1.1,0.9h-4.3c-0.1-0.7-0.7-1.2-1.5-1.2s-1.3,0.5-1.5,1.2h-4
						c-0.1-0.5-0.6-0.9-1.1-0.9c-0.6,0-1.2,0.5-1.2,1.2s0.5,1.2,1.2,1.2c0.5,0,1-0.4,1.1-0.9h4c0.1,0.7,0.7,1.2,1.5,1.2
						s1.3-0.5,1.5-1.2h4.3c0.1,0.5,0.6,0.9,1.1,0.9c0.6,0,1.2-0.5,1.2-1.2S55.8,11.2,55.2,11.2z M48.3,13.2c-0.5,0-0.8-0.4-0.8-0.8
						s0.4-0.8,0.8-0.8s0.8,0.4,0.8,0.8S48.8,13.2,48.3,13.2z"/>
					<g>
						<path class="st2" d="M71.1,17.9c-1.3,0-2.4,1.1-2.4,2.4c0,0.5,0.2,1,0.5,1.4l-5,5.1h-2.2c-0.2-0.6-0.7-1.1-1.4-1.1
							c-0.8,0-1.5,0.7-1.5,1.5s0.7,1.5,1.5,1.5c0.6,0,1.1-0.4,1.3-0.9h2.7l0.1-0.2l5.1-5.2c0.4,0.2,0.8,0.4,1.3,0.4
							c1.3,0,2.4-1.1,2.4-2.4S72.4,17.9,71.1,17.9L71.1,17.9z M71.1,21.7c-0.8,0-1.4-0.6-1.4-1.4s0.6-1.4,1.4-1.4s1.4,0.6,1.4,1.4
							S71.9,21.7,71.1,21.7z"/>
						<path class="st2" d="M58,19.9c-0.5,0-1,0.4-1.1,0.9h-3.5v0.4l0,0l0,3.7c-0.7,0.2-1.1,0.8-1.1,1.5c0,0.8,0.7,1.5,1.5,1.5
							s1.5-0.7,1.5-1.5c0-0.7-0.5-1.3-1.2-1.5l0-3.3H57c0.2,0.4,0.6,0.7,1.1,0.7c0.6,0,1.2-0.5,1.2-1.2S58.7,19.9,58,19.9L58,19.9z
							 M54.6,26.3c0,0.4-0.4,0.8-0.8,0.8S53,26.7,53,26.3s0.4-0.8,0.8-0.8S54.6,25.9,54.6,26.3z"/>
						<path class="st2" d="M54.9,16.5c-0.5,0-1,0.4-1.1,0.9h-3.5v0.4l0,0l0,3.7c-0.7,0.2-1.1,0.8-1.1,1.5c0,0.8,0.7,1.5,1.5,1.5
							s1.5-0.7,1.5-1.5c0-0.7-0.5-1.3-1.2-1.5l0-3.3h2.8c0.2,0.4,0.6,0.7,1.1,0.7c0.6,0,1.2-0.5,1.2-1.2S55.6,16.5,54.9,16.5
							L54.9,16.5z M51.5,22.9c0,0.4-0.4,0.8-0.8,0.8s-0.8-0.4-0.8-0.8s0.3-0.8,0.8-0.8S51.5,22.5,51.5,22.9z"/>
						<path class="st2" d="M54.9,13.8c-0.6,0-1.1,0.5-1.2,1.1h-1.3c-0.1-0.7-0.7-1.3-1.5-1.3c-0.8,0-1.5,0.7-1.5,1.5
							s0.7,1.5,1.5,1.5c0.7,0,1.3-0.5,1.4-1.1h1.5c0.2,0.4,0.6,0.7,1,0.7c0.6,0,1.2-0.5,1.2-1.2S55.6,13.8,54.9,13.8L54.9,13.8z
							 M51,16c-0.5,0-0.8-0.4-0.8-0.8s0.4-0.8,0.8-0.8s0.8,0.4,0.8,0.8S51.5,16,51,16z"/>
					</g>
				</g>
				<g>
					<g>
						<path class="st2" d="M37.1,52.8c-0.6,0-1,0.3-1.2,0.9h-2.5l-0.1,0.2l-4.7,4.8c-0.4-0.2-0.8-0.3-1.2-0.3c-1.2,0-2.2,1-2.2,2.2
							s1,2.2,2.2,2.2s2.2-1,2.2-2.2c0-0.5-0.1-1-0.4-1.3l4.6-4.7h2.1c0.2,0.6,0.7,1,1.3,1c0.7,0,1.3-0.6,1.3-1.3
							S37.9,52.8,37.1,52.8L37.1,52.8z M27.3,61.9c-0.7,0-1.3-0.6-1.3-1.3s0.6-1.3,1.3-1.3s1.3,0.6,1.3,1.3S28,61.9,27.3,61.9z"/>
						<path class="st2" d="M43.3,53.6c-0.8,0-1.4,0.6-1.4,1.4c0,0.7,0.5,1.2,1.1,1.4l0,3.1h-2.6c-0.2-0.4-0.5-0.7-1-0.7
							c-0.6,0-1.1,0.5-1.1,1.1s0.5,1.1,1.1,1.1c0.5,0,0.9-0.3,1-0.8h3.2v-0.4l0,0l0-3.4c0.6-0.2,1-0.7,1-1.4
							C44.8,54.3,44.1,53.6,43.3,53.6L43.3,53.6z M43.3,55.8c-0.4,0-0.7-0.3-0.7-0.7s0.3-0.7,0.7-0.7s0.7,0.3,0.7,0.7
							S43.7,55.8,43.3,55.8z"/>
						<path class="st2" d="M46.2,56.8c-0.8,0-1.4,0.6-1.4,1.4c0,0.7,0.5,1.2,1.1,1.4l0,3.1h-2.6c-0.2-0.4-0.5-0.7-1-0.7
							c-0.6,0-1.1,0.5-1.1,1.1s0.5,1.1,1.1,1.1c0.5,0,0.9-0.3,1-0.8h3.2V63l0,0l0-3.4c0.6-0.2,1-0.7,1-1.4
							C47.6,57.4,47,56.8,46.2,56.8L46.2,56.8z M46.2,58.9c-0.4,0-0.7-0.3-0.7-0.7s0.3-0.7,0.7-0.7s0.7,0.3,0.7,0.7
							S46.6,58.9,46.2,58.9z"/>
						<path class="st2" d="M45.9,64.1c-0.6,0-1.2,0.4-1.3,1.1h-1.4c-0.2-0.4-0.5-0.6-1-0.6c-0.6,0-1.1,0.5-1.1,1.1s0.5,1.1,1.1,1.1
							s1-0.5,1.1-1h1.2c0.1,0.7,0.7,1.2,1.4,1.2c0.8,0,1.4-0.6,1.4-1.4S46.7,64.1,45.9,64.1z M45.9,66.2c-0.4,0-0.8-0.3-0.8-0.8
							s0.3-0.8,0.8-0.8s0.8,0.3,0.8,0.8S46.4,66.2,45.9,66.2z"/>
					</g>
					<path class="st2" d="M54.7,66.9c-0.5,0-0.9,0.4-1,0.8h-4c-0.1-0.6-0.7-1.1-1.3-1.1s-1.2,0.5-1.3,1.1h-3.7
						c-0.1-0.5-0.5-0.8-1-0.8c-0.6,0-1.1,0.5-1.1,1.1s0.5,1.1,1.1,1.1c0.5,0,0.9-0.4,1-0.8H47c0.1,0.7,0.7,1.1,1.3,1.1
						s1.2-0.5,1.3-1.1h4c0.1,0.5,0.5,0.8,1,0.8c0.6,0,1.1-0.5,1.1-1.1S55.3,66.9,54.7,66.9z M48.3,68.8c-0.4,0-0.8-0.3-0.8-0.8
						s0.3-0.8,0.8-0.8s0.8,0.3,0.8,0.8S48.8,68.8,48.3,68.8z"/>
					<g>
						<path class="st2" d="M69.4,58.3c-0.4,0-0.8,0.1-1.2,0.3l-4.7-4.8l-0.1-0.2h-2.5c-0.2-0.5-0.7-0.9-1.2-0.9
							c-0.7,0-1.3,0.6-1.3,1.3s0.6,1.3,1.3,1.3c0.6,0,1.1-0.4,1.3-1H63l4.6,4.7c-0.3,0.4-0.4,0.8-0.4,1.3c0,1.2,1,2.2,2.2,2.2
							s2.2-1,2.2-2.2S70.7,58.4,69.4,58.3L69.4,58.3z M69.4,61.9c-0.7,0-1.3-0.6-1.3-1.3s0.6-1.3,1.3-1.3s1.3,0.6,1.3,1.3
							S70.1,61.9,69.4,61.9z"/>
						<path class="st2" d="M57.3,58.9c-0.5,0-0.8,0.3-1,0.7h-2.6l0-3.1c0.6-0.1,1.1-0.7,1.1-1.4c0-0.8-0.6-1.4-1.4-1.4
							S52,54.3,52,55.1c0,0.7,0.5,1.2,1,1.4l0,3.4l0,0v0.3l3.2,0c0.1,0.5,0.5,0.8,1,0.8c0.6,0,1.1-0.5,1.1-1.1S57.9,58.9,57.3,58.9
							L57.3,58.9z M52.7,55.1c0-0.4,0.3-0.7,0.7-0.7s0.7,0.3,0.7,0.7s-0.3,0.7-0.7,0.7S52.7,55.5,52.7,55.1z"/>
						<path class="st2" d="M54.5,62c-0.5,0-0.8,0.3-1,0.7h-2.6l0-3.1c0.6-0.1,1.1-0.7,1.1-1.4c0-0.8-0.6-1.4-1.4-1.4
							s-1.4,0.6-1.4,1.4c0,0.7,0.5,1.2,1,1.4l0,3.4l0,0v0.3h3.2c0.1,0.5,0.5,0.8,1,0.8c0.6,0,1.1-0.5,1.1-1.1S55.1,62,54.5,62
							L54.5,62z M49.8,58.2c0-0.4,0.3-0.7,0.7-0.7s0.7,0.3,0.7,0.7s-0.3,0.7-0.7,0.7S49.8,58.6,49.8,58.2z"/>
						<path class="st2" d="M54.5,64.5c-0.4,0-0.8,0.2-1,0.6h-1.3c-0.2-0.6-0.7-1-1.3-1c-0.8,0-1.4,0.6-1.4,1.4s0.6,1.4,1.4,1.4
							c0.7,0,1.3-0.5,1.4-1.2h1.2c0,0.6,0.5,1,1.1,1s1.1-0.5,1.1-1.1S55.1,64.5,54.5,64.5L54.5,64.5z M50.8,66.2
							c-0.4,0-0.8-0.3-0.8-0.8s0.3-0.8,0.8-0.8s0.8,0.3,0.8,0.8S51.2,66.2,50.8,66.2z"/>
					</g>
				</g>
				<g>
					<polygon class="st4" points="61.8,43.7 68.1,43.7 68.1,40.5 68.1,39.8 61.8,39.8 61.8,39.1 61.8,37.2 69,37.2 69,33.3 
						56.7,33.3 56.7,38.9 56.7,40 56.7,48.5 61.8,48.5 					"/>
					<path class="st4" d="M83.6,40.8c-0.2,0-0.4-0.1-0.6-0.1l-3.2-7.4h-5L72,39.7l-0.5,1.1l-3.4,7.8h5.2l1-2.7h5.8l1,2.7h5.3
						l-2.8-6.3L83.5,42c0,0,0.1,0,0.1,0c9.2,1.3,11.7,2.9,11.7,3.6s-2.5,2.2-11.4,3.5c-0.6,0.1-1.3,0.2-2,0.3
						c-4.3,0.6-9.2,1-14.7,1.3C61.4,51,55,51.2,48.4,51.2s-13-0.2-18.9-0.5c-5.4-0.3-10.4-0.7-14.6-1.3c-0.6-0.1-1.2-0.2-1.8-0.2
						c-9.2-1.3-11.7-2.9-11.7-3.6c0-0.7,2.2-2.1,10.2-3.3v6.3h5v-3.8l1.1-1.3l3.8,5h5.9L21.8,41l-0.7-1l0.1-0.1l6-6.6h-5.6l-5,5.5
						v-5.5h-5V41c-6.7,1.1-11.3,2.5-11.3,4.5c0,2.1,5.2,3.6,12.8,4.7c1.9,0.3,3.9,0.5,6.1,0.7c9.2,0.9,20.3,1.3,29.2,1.3
						s20.2-0.4,29.4-1.3c2.1-0.2,4.2-0.5,6.1-0.7c7.4-1.1,12.6-2.6,12.6-4.7S91.1,41.9,83.6,40.8L83.6,40.8z M75.7,42.2l0.4-1.1
						l0.4-1.1l0.7-1.7l0.7,1.8l0.4,1.2l0.3,0.8L75.7,42.2L75.7,42.2z"/>
					<path class="st4" d="M26.7,40.6c0,0.1,0,0.2,0,0.3c0,1.2,0.2,2.2,0.6,3.2c0.4,1,1,1.8,1.8,2.5s1.7,1.2,2.7,1.6
						c1,0.4,2.2,0.6,3.4,0.6c1.5,0,2.8-0.3,4-0.8c1.2-0.5,2.1-1.3,2.8-2.2l-3.2-2.9c-0.5,0.6-1,1-1.5,1.3s-1.2,0.5-1.8,0.5
						c-0.5,0-1-0.1-1.5-0.3s-0.8-0.4-1.1-0.8c-0.3-0.3-0.6-0.7-0.7-1.2c-0.2-0.5-0.3-1-0.3-1.6c0-0.2,0-0.4,0-0.6
						c0-0.3,0.1-0.7,0.2-1c0,0,0-0.1,0-0.1c0.2-0.4,0.4-0.8,0.7-1.1c0.3-0.3,0.7-0.6,1.1-0.8s0.9-0.3,1.5-0.3c0.7,0,1.3,0.2,1.8,0.5
						s1,0.8,1.5,1.3l3.2-2.9c-0.8-1-1.7-1.7-2.8-2.3c-1.2-0.5-2.5-0.8-4-0.8c-1.2,0-2.3,0.2-3.4,0.6s-1.9,0.9-2.7,1.6
						s-1.4,1.5-1.8,2.5c-0.2,0.6-0.4,1.2-0.5,1.8C26.7,39.9,26.7,40.3,26.7,40.6L26.7,40.6z"/>
					<path class="st4" d="M42.5,40c0,0,0,0.1,0.1,0.1c0.3,0.5,0.7,1,1.2,1.3s1,0.6,1.7,0.8s1.2,0.4,1.8,0.5c0.6,0.1,1.1,0.2,1.6,0.3
						c0.5,0.1,0.9,0.2,1.2,0.4s0.5,0.4,0.5,0.7c0,0.2-0.1,0.3-0.2,0.5c-0.1,0.1-0.3,0.2-0.6,0.3C49.4,44.9,49,45,48.5,45
						c-0.8,0-1.7-0.1-2.6-0.4s-1.7-0.6-2.4-1l-1.7,3.7c0.8,0.5,1.7,0.8,2.9,1.1c1.2,0.3,2.4,0.4,3.7,0.4c1.6,0,2.9-0.2,3.9-0.7
						c1-0.5,1.8-1.1,2.4-1.9c0.5-0.8,0.8-1.6,0.8-2.5c0-0.8-0.2-1.5-0.5-2c-0.3-0.5-0.7-1-1.2-1.3c-0.3-0.2-0.5-0.3-0.8-0.5
						c-0.3-0.1-0.5-0.2-0.8-0.3c-0.6-0.2-1.2-0.4-1.8-0.5c-0.6-0.1-1.1-0.2-1.6-0.3l0,0c0,0,0,0,0,0c-0.5-0.1-0.9-0.2-1.2-0.4
						c-0.3-0.2-0.5-0.4-0.5-0.6c0-0.2,0.1-0.3,0.2-0.5c0.1-0.1,0.3-0.3,0.6-0.3c0.3-0.1,0.7-0.1,1.2-0.1c0.7,0,1.3,0.1,2,0.3
						c0.7,0.2,1.4,0.5,2.2,0.8l1.5-3.7c-0.8-0.5-1.7-0.8-2.7-1s-2-0.3-3-0.3c-1.6,0-2.9,0.2-3.9,0.7s-1.8,1.1-2.4,1.8
						s-0.8,1.6-0.8,2.6c0,0.3,0,0.5,0.1,0.8C42.2,39.3,42.3,39.7,42.5,40L42.5,40z"/>
				</g>
			</g>
		</g>
	</g>
</g>
</svg>
